<?xml version="1.0" encoding="UTF-8" standalone="no"?>

<svg width="20.980347mm" height="20.965187mm" viewBox="0 0 20.980347 20.965187" version="1.1" id="svg1"
  xml:space="preserve" xmlns="http://www.w3.org/2000/svg" xmlns:svg="http://www.w3.org/2000/svg">&#10; <defs id="defs1">
    <clipPath clipPathUnits="userSpaceOnUse" id="clipPath43">
      <ellipse style="fill:#000000;fill-opacity:1;stroke-width:0.346768" id="ellipse43" cx="10.506858" cy="10.506747"
        rx="10.490172" ry="10.479803" />
    </clipPath>
  </defs>&#10; <g id="layer1" transform="translate(-0.00918007,-0.02136326)">&#10;
    <ellipse style="fill:#000000;fill-opacity:1;stroke-width:0.346768" id="path4-0" cx="10.499353" cy="10.501166"
      rx="10.490173" ry="10.479803" />
    <g id="g43" clip-path="url(#clipPath43)">
      <path fill="#b25000"
        d="m 18.269531,16.493404 c 0,0 1.027344,0.05859 2.359375,0.02734 1.511719,-0.02734 2.902344,-0.210937 4.351563,-0.574218 1.238281,-0.269532 1.390625,-0.453125 1.574219,-0.453125 0.210937,0 0.148437,0.210937 -0.03125,0.332031 -0.183594,0.152344 -1.238282,0.574219 -2.871094,0.757812 -0.90625,0.121094 -2.085938,0.210938 -3.085938,0.210938 -0.84375,0 -1.570312,-0.05859 -1.8125,-0.08984 -0.515625,-0.0625 -0.484375,-0.210937 -0.484375,-0.210938 z m 4.140625,0.722656 c 0,-0.05859 0.183594,-0.03125 0.695313,-0.121094 0.335937,-0.03125 1.273437,-0.148437 2.027343,-0.359375 0.605469,-0.152344 1.058594,-0.363281 1.085938,-0.335937 0.515625,0.605469 -3.625,1.210937 -3.808594,0.816406"
        fill-opacity="1" fill-rule="evenodd" id="path7"
        transform="matrix(0.73413141,0,0,0.73073525,-4.2542799,-0.05987399)" />
      <path fill="#ffffff"
        d="m 13.070312,13.859375 c 0,0.332031 0.08984,1.328125 0.242188,1.71875 0.210938,0.488281 0.816406,1.394531 2.960938,1.875 2.117187,0.515625 4.71875,0.546875 6.984374,0.121094 2.269532,-0.421875 3.777344,-1.390625 3.992188,-1.660157 0.179688,-0.210937 0.117188,-1.601562 0.08984,-2.085937 0,-0.636719 -0.484375,-0.816406 -1.027344,-1.027344 -0.152344,-0.03125 -0.332031,-0.08984 -0.484375,-0.183593 -0.300781,-0.148438 -0.574219,-0.300782 -0.816406,-0.480469 -0.242188,-0.214844 -0.484375,-0.425781 -0.726563,-0.757813 -0.273437,-0.363281 -0.632812,-0.664062 -1.085937,-0.875 -0.453125,-0.183594 -0.9375,-0.304687 -1.453125,-0.304687 -0.574219,0.03125 -1.148438,0.210937 -1.84375,0.484375 -0.542969,0.210937 -1.179688,0.421875 -1.996094,0.636718 -0.816406,0.179688 -1.480469,0.238282 -2.054688,0.300782 -0.664062,0.05859 -1.238281,0.121094 -1.8125,0.363281 -0.304687,0.121094 -0.515624,0.269531 -0.695312,0.484375 -0.183594,0.210938 -0.304688,0.453125 -0.332031,0.695312 -0.0625,0.238282 -0.03125,0.453126 0.05859,0.695313 z m 7.527344,-1.574219 c 0.394532,0 0.726563,0.121094 0.726563,0.304688 0,0.148437 -0.332031,0.269531 -0.726563,0.269531 -0.179687,0 -0.390625,-0.03125 -0.511718,-0.08984 0.179687,0.242188 0.632812,0.394531 1.117187,0.394531 0.664063,0 1.238281,-0.273437 1.238281,-0.636718 0,-0.05859 -0.03125,-0.152344 -0.08984,-0.210938 0.273438,0.152344 0.453126,0.332032 0.453126,0.574219 0,0.421875 -0.695313,0.785156 -1.542969,0.785156 -0.84375,0 -1.511719,-0.363281 -1.511719,-0.785156 0,-0.121094 0.03125,-0.242187 0.121094,-0.332031 0.03125,-0.152344 0.335937,-0.273438 0.726562,-0.273438 z m 0.664063,-0.574218 c 0,0 0.667969,-0.664063 1.242187,-0.605469 0.601563,0.0625 0.996094,0.453125 0.996094,0.453125 0,0 -0.421875,-0.179688 -0.816406,-0.179688 -0.421875,0 -0.753906,0.242188 -1.058594,0.363282 -0.332031,0.121093 -0.574219,0.121093 -0.574219,0.121093 z m -1.570313,2.871093 c 0,0 0.996094,0.09375 2.238282,-0.363281 1.207031,-0.421875 1.601562,-1.027344 1.992187,-1.148438 0.363281,-0.148437 0.546875,-0.121093 0.546875,-0.121093 0,0 -0.335938,0.183593 -0.667969,0.484375 -0.332031,0.273437 -0.421875,0.515625 -0.421875,0.515625 0,0 0.242188,-0.03125 0.90625,-0.210938 0.664063,-0.152343 0.847656,-0.273437 0.847656,-0.273437 0,0 -0.03125,0.273437 -0.726562,0.542968 -0.695312,0.242188 -1.175781,0.332032 -1.449219,0.484376 -0.304687,0.121093 -0.847656,0.242187 -1.722656,0.273437 -0.910156,0.05859 -1.542969,-0.183594 -1.542969,-0.183594 z m -4.957031,-1.660156 c 0,0 -0.363281,0.363281 -0.183594,0.632813 0.183594,0.304687 0.878907,0 1.179688,-0.242188 0.273437,-0.210938 0.90625,-0.664062 1.421875,-0.722656 0.515625,-0.0625 0.875,-0.152344 1.058594,-0.183594 0.152343,-0.05859 0.242187,-0.08984 0.242187,-0.03125 0,0.03125 -0.453125,0.363281 -0.90625,0.515625 -0.457031,0.179687 -0.574219,0.210937 -0.757813,0.394531 -0.179687,0.179688 -0.242187,0.238282 -0.242187,0.238282 0,0 0.484375,-0.05859 0.816406,-0.05859 0.304688,0.03125 0.574219,0 0.605469,-0.03125 0.03125,0 -0.332031,0.242187 -0.757812,0.304687 -0.421876,0.05859 -0.722657,0.05859 -0.9375,0.148438 -0.238282,0.121093 -0.691407,0.332031 -1.117188,0.363281 -0.421875,0 -0.90625,-0.08984 -1.058594,-0.453125 -0.148437,-0.363281 0,-0.574219 0.214844,-0.753906 0.238281,-0.183594 0.421875,-0.121094 0.421875,-0.121094 z m -5.199219,0.601563 c 0.179688,0 0.300782,0.121093 0.300782,0.273437 0,0.183594 -0.121094,0.300781 -0.300782,0.300781 -0.152344,0 -0.273437,-0.117187 -0.273437,-0.300781 0,-0.152344 0.121093,-0.273437 0.273437,-0.273437 z M 9.898438,9.050781 c 0.179687,0 0.300781,0.121094 0.300781,0.273438 0,0.148437 -0.121094,0.300781 -0.300781,0.300781 C 9.746094,9.625 9.625,9.472656 9.625,9.324219 9.625,9.171875 9.746094,9.050781 9.898438,9.050781 Z m 0.90625,-2.023437 c 0.152343,0 0.300781,-0.152344 0.300781,-0.304688 0,-0.148437 -0.148438,-0.269531 -0.300781,-0.269531 -0.152344,0 -0.304688,0.121094 -0.304688,0.269531 0,0.152344 0.152344,0.304688 0.304688,0.304688 z M 8.355469,8.445312 c 0.152343,0 0.242187,-0.089843 0.242187,-0.238281 0,-0.121093 -0.089844,-0.242187 -0.242187,-0.242187 -0.121094,0 -0.242188,0.121094 -0.242188,0.242187 0,0.148438 0.121094,0.238281 0.242188,0.238281 z M 21.835938,2.308594 c 0.152343,0 0.273437,-0.148438 0.273437,-0.300782 0,-0.152343 -0.121094,-0.273437 -0.273437,-0.273437 -0.179688,0 -0.300782,0.121094 -0.300782,0.273437 0,0.152344 0.121094,0.300782 0.300782,0.300782 z m 0.605468,2.300781 c 0.121094,0 0.242188,-0.121094 0.242188,-0.242187 0,-0.152344 -0.121094,-0.242188 -0.242188,-0.242188 -0.148437,0 -0.269531,0.089844 -0.269531,0.242188 0,0.121093 0.121094,0.242187 0.269531,0.242187 z m 7.375,0.269531 c 0.152344,0 0.242188,-0.089844 0.242188,-0.242187 0,-0.121094 -0.08984,-0.242188 -0.242188,-0.242188 -0.121094,0 -0.242187,0.121094 -0.242187,0.242188 0,0.152343 0.121093,0.242187 0.242187,0.242187 z m 1.300782,3.113282 c 0.152343,0 0.273437,-0.121094 0.273437,-0.269532 0,-0.121094 -0.121094,-0.242187 -0.273437,-0.242187 -0.121094,0 -0.242188,0.121093 -0.242188,0.242187 0,0.148438 0.121094,0.269532 0.242188,0.269532 z m -0.90625,3.234374 c 0.210937,0 0.363281,-0.148437 0.363281,-0.363281 0,-0.210937 -0.152344,-0.390625 -0.363281,-0.390625 -0.210938,0 -0.394532,0.179688 -0.394532,0.390625 0,0.214844 0.183594,0.363281 0.394532,0.363281 z m 0.152343,1.601563 c 0.121094,0 0.242188,-0.117187 0.242188,-0.238281 0,-0.152344 -0.121094,-0.242188 -0.242188,-0.242188 -0.152343,0 -0.273437,0.08984 -0.273437,0.242188 0,0.121094 0.121094,0.238281 0.273437,0.238281 z m -1.359375,0.96875 c 1.328125,0.726563 2.175782,1.664063 2.265625,2.660156 0,0.03125 0,0.03125 0,0.05859 0,0.03125 0,0.03125 0,0.03125 0,0.03125 0,0.03125 0,0.0625 0,0.08984 0,0.179687 -0.03125,0.273437 v 0.05859 c -0.03125,0.300782 -0.03125,0.632813 -0.05859,0.753906 -0.304688,2.480469 -1.390626,4.476563 -2.964844,5.925782 0.515625,1.359375 1.421875,4.109375 1.390625,4.203125 -0.05859,0.08984 -0.996094,0.390625 -1.269531,0.179687 -0.179688,-0.121094 -1.085938,-1.84375 -1.753907,-3.144531 -1.328125,0.816406 -2.808593,1.332031 -4.351562,1.574219 -0.05859,0.390625 -0.300781,1.84375 -0.453125,1.933594 -0.183594,0.121093 -1.570313,0.05859 -1.570313,0.05859 0,0 -0.242187,-1.449219 -0.273437,-1.84375 -1.542969,-0.05859 -3.082032,-0.390625 -4.503906,-1.027343 -0.453126,-0.210938 -0.90625,-0.453126 -1.332032,-0.695313 -0.511718,1.179687 -1.359375,3.175781 -1.511718,3.175781 -0.210938,0 -0.570313,-0.0625 -0.542969,-0.332031 0,-0.304687 1.390625,-3.75 1.359375,-3.929687 -0.05859,-0.183594 -0.242188,-0.332032 -0.453125,-0.0625 -0.179688,0.273437 -1.8125,3.929687 -1.933594,3.960937 -0.121094,0 -0.121094,-0.08984 -0.121094,-0.08984 l 1.359375,-4.203125 C 11.015625,22.171875 10.019531,20.597656 9.476562,18.632812 9.414062,18.484375 9.324219,18.121094 9.230469,17.785156 9.171875,17.574219 9.113281,17.363281 9.082031,17.273438 c 0,-0.03125 0,-0.03125 0,-0.05859 -0.0625,-0.183594 -0.089843,-0.394532 -0.089843,-0.605469 0,-0.96875 0.691406,-1.875 1.902343,-2.601563 0.304688,-0.179687 0.636719,-0.210937 0.152344,0.183594 -0.664063,0.511719 -1.089844,1.085938 -1.179687,1.722656 0.632812,-0.273437 2.539062,-1.117187 2.601562,-1.148437 0.08984,0 0.179688,0.08984 0.179688,0.210937 0,0.08984 -0.08984,0.121094 -0.08984,0.121094 l -2.601563,1.570313 -0.027343,-0.03125 c 0.089843,0.273437 0.238281,0.578125 0.453124,0.816406 0.695313,-0.269531 2.476563,-1.085937 2.566407,-1.085937 0.0625,-0.03125 0.152343,0.08984 0.152343,0.179687 0,0.121094 -0.08984,0.152344 -0.08984,0.152344 l -1.996094,1.359375 c 0.300781,0.242187 0.664063,0.484375 1.089844,0.695312 0.785156,-0.363281 2.476562,-1.085937 2.539062,-1.117187 0.08984,-0.03125 0.179688,0.08984 0.179688,0.210937 -0.03125,0.08984 -0.121094,0.121094 -0.121094,0.121094 l -1.691406,1.179688 c 0.511719,0.210937 1.058593,0.363281 1.632812,0.511718 0.632813,-0.332031 1.902344,-1.058594 2.296875,-1.238281 0.605469,-0.269531 0.9375,0.121094 0.363282,0.515625 l -1.453126,0.996094 c 0.664063,0.121094 1.359376,0.210937 2.085938,0.300781 0.753906,-0.511719 2.296875,-1.539063 2.691406,-1.722656 0.605469,-0.269531 0.90625,0.121093 0.332032,0.546875 l -1.691407,1.238281 c 0.238281,0 0.511719,0 0.785157,0 0.332031,0 0.695312,0 1.027343,0 0.121094,-0.08984 3.175781,-2.328125 3.65625,-2.539063 0.574219,-0.273437 0.910157,0.08984 0.394531,0.511719 l -2.269531,1.875 c 0.878907,-0.08984 1.695313,-0.242187 2.480469,-0.453125 0.332031,-0.300781 3.054688,-3.082031 3.507812,-3.414062 0.574219,-0.394532 0.964844,-0.0625 0.484376,0.480468 l -2.117188,2.328126 c 1.84375,-0.753907 2.992188,-1.78125 2.992188,-2.960938 0,-0.546875 -0.273438,-1.089844 -0.757813,-1.574219 -0.332031,0.214844 -0.601563,0.363281 -0.722656,0.425781 -0.546875,0.242188 -0.816407,-0.08984 -0.304688,-0.453124 l 0.515625,-0.425782 c -0.03125,0 -0.05859,-0.02734 -0.08984,-0.05859 -0.453124,-0.300781 -0.332031,-0.484374 0.152344,-0.242187 z m -12.03125,11.125 c 0.574219,0.179687 2.445313,0.695313 4.441406,0.363281 1.480469,-0.210937 2.449219,-0.878906 2.992188,-1.332031 -1.238281,0.421875 -3.71875,1.121094 -5.921875,0.757813 -3.027344,-0.515626 -4.507813,-2.054688 -4.507813,-2.054688 0,0 0.09375,0.238281 0.335938,0.511719 0.300781,0.332031 0.753906,0.785156 1.085938,0.96875 0.636718,0.390625 0.484374,0.480469 0.363281,0.480469 -0.03125,0 -0.484375,-0.148438 -0.816407,-0.359376 -0.152343,-0.09375 -0.300781,-0.183593 -0.484374,-0.273437 0,0 -0.05859,0.179687 -0.179688,0.453125 0.421875,0.273438 0.847656,0.515625 1.300781,0.726562 1.75,0.753907 3.714844,1.085938 5.621094,0.9375 1.8125,-0.121093 3.628906,-0.667968 5.167969,-1.605468 -0.03125,-0.08984 -0.08984,-0.148438 -0.121094,-0.238282 -0.722656,0.511719 -2.386719,1.480469 -4.867188,1.539063 -1.601562,0.0625 -3.019531,0 -4.503906,-0.632813 -0.242187,-0.08984 -0.332031,-0.363281 0.09375,-0.242187 z m -3.902344,-2.054687 c -0.121093,-0.09375 -0.210937,-0.210938 -0.269531,-0.304688 -0.785156,-0.84375 -1.179687,-2.328125 -1.179687,-2.328125 0,0 5.136718,2.480469 11.757812,1.242187 3.234375,-0.605468 4.988282,-1.511718 5.957032,-2.269531 -2.027344,1.242188 -5.382813,2.027344 -9.222657,2.027344 -1.902343,0 -3.71875,-0.210937 -5.320312,-0.574219 v 0.02734 -0.02734 c -2.207031,-0.484375 -3.957031,-1.300781 -4.957031,-2.269531 0.03125,0.0625 0.03125,0.09375 0.03125,0.121094 0.542968,1.875 1.480468,3.355469 2.628906,4.535156 0.152344,-0.08984 0.335937,-0.179687 0.574218,-0.179687 z m 2.84375,-10.730469 c -0.636718,0.05859 -1.148437,0.117187 -1.695312,0.332031 -0.210938,0.08984 -0.363281,0.210938 -0.484375,0.332031 -0.117187,0.148438 -0.210937,0.300781 -0.238281,0.453125 -0.03125,0.148438 0,0.300782 0.05859,0.453125 0.0625,0.152344 0.152343,0.273438 0.273437,0.390625 0.179687,0.152344 0.421875,0.335938 0.753906,0.484375 0.273438,0.152344 0.605469,0.273438 0.9375,0.332031 1.117188,0.273438 2.570313,0.394532 4.050781,0.394532 1.664063,0 3.355469,-0.152344 4.625,-0.394532 0.695313,-0.117187 1.359376,-0.269531 1.875,-0.480468 0.421876,-0.183594 0.726563,-0.394532 0.753907,-0.605469 0,-0.273437 -0.300781,-0.394531 -0.695313,-0.542969 -0.148437,-0.0625 -0.332031,-0.121094 -0.511718,-0.214844 -0.332032,-0.148437 -0.636719,-0.332031 -0.9375,-0.542968 -0.273438,-0.210938 -0.546876,-0.484375 -0.785157,-0.847656 -0.242187,-0.269532 -0.546875,-0.542969 -0.910156,-0.695313 -0.390625,-0.179687 -0.785156,-0.269531 -1.238281,-0.269531 -0.484375,0 -0.996094,0.210937 -1.660156,0.453125 -0.578126,0.210937 -1.242188,0.453125 -2.058594,0.632812 -0.84375,0.210938 -1.539063,0.273438 -2.113282,0.335938"
        fill-opacity="1" fill-rule="evenodd" id="path6"
        transform="matrix(0.73413141,0,0,0.73073525,-4.2542799,0.42912477)" />
      <path fill="#f4631c"
        d="m 19.902344,3.972656 c 0.03125,0.453125 0,0.90625 0.152344,0.90625 0.08984,0 0.300781,-0.300781 0.421874,-0.695312 C 20.75,3.277344 20.175781,2.824219 19.84375,2.191406 19.75,2.007812 19.691406,1.855469 19.660156,1.796875 c -0.05859,-0.089844 -0.242187,0.210937 -0.300781,0.542969 -0.0625,0.453125 0.511719,0.90625 0.542969,1.632812 z M 12.375,5.363281 c 0,0 0.273438,-0.816406 0.242188,-1.542969 C 12.558594,3.066406 12.4375,2.492188 12.40625,2.371094 c 0,-0.089844 0.695312,0.332031 0.785156,1.449218 0.0625,1.121094 -0.664062,1.722657 -0.785156,1.753907 -0.121094,0 -0.03125,-0.210938 -0.03125,-0.210938 z m -0.300781,8.160157 c 0,0 -1.390625,-1.449219 -1.359375,-2.839844 0.02734,-1.390625 0.722656,-2.507813 1.601562,-3.476563 0.875,-0.9375 1.417969,-1.902343 1.480469,-2.660156 0.08984,-0.726563 0,-1.085937 0.08984,-1.117187 0.0625,0 0.574219,0.210937 0.878906,0.785156 0.269531,0.542968 0.542969,1.421875 0.542969,1.421875 0,0 0.632812,-0.695313 0.605468,-2.359375 C 15.882812,1.617188 15.21875,0.980469 15.1875,0.769531 15.12891,0.585938 15.882812,0.617188 16.457031,0.890625 17.03125,1.191406 18.9375,2.128906 19.054688,4.277344 19.207031,6.453125 18.574219,7.539062 18.8125,8.324219 c 0.214844,0.816406 0.636719,1.089843 0.636719,1.089843 0,0 -0.121094,-0.632812 0.542969,-1.601562 0.667968,-1 1.210937,-0.90625 1.363281,-1.933594 0.148437,-1.027344 -0.0625,-1.300781 0,-1.363281 0.05859,-0.089844 0.574219,0.03125 1.207031,1.148437 0.605469,1.148438 0.574219,1.847657 0.484375,2.238282 -0.0625,0.363281 -0.183594,0.636718 -0.183594,0.636718 0,0 0.9375,-0.574218 0.847657,-1.785156 -0.08984,-1.238281 -0.632813,-1.996094 -0.242188,-3.203125 0.425781,-1.210937 1.601562,-2.269531 2.179688,-2.480469 0.542968,-0.210937 0.359374,0.089844 0.332031,0.183594 -0.03125,0.089844 -0.453125,2.085938 0.121093,3.292969 0.574219,1.238281 2.324219,2.359375 2.71875,4.382813 0.421876,2.054687 -0.152343,3.808593 -0.394531,4.082031 -0.269531,0.242187 -0.480469,0.210937 -0.511719,0.03125 0,-0.214844 0.05859,-1.542969 -0.425781,-2.84375 -0.480469,-1.300781 -1.207031,-1.78125 -1.207031,-1.78125 0.453125,4.171875 -0.785156,3.082031 -2.207031,2.234375 -0.273438,-0.148438 -0.453125,0.03125 -0.332031,0.210937 0.03125,0.03125 0.08984,0.121094 0.210937,0.273438 -0.390625,-0.453125 -1.421875,-0.753907 -1.753906,-0.847657 0.03125,-0.02734 0.183593,-0.238281 0.183593,-0.300781 -0.03125,-0.058593 -0.183593,-0.152343 -0.96875,-0.121093 -0.816406,0 -2.054687,0.574218 -2.960937,0.757812 -0.9375,0.179688 -1.269531,0.238281 -1.632813,-0.667969 -0.453124,-1.296875 -0.394531,-1.691406 -0.394531,-1.691406 0,0 -0.875,0.515625 -0.9375,1.722656 0,0.664063 0.0625,1.089844 0.121094,1.359375 -1.417969,0.210938 -2.808594,-0.753906 -2.417969,-2.054687 0,0 -0.964844,0.875 -0.816406,2.507812 0.152344,1.632813 0.121094,1.722657 0.03125,1.753907 -0.08984,0 -0.332031,-0.03125 -0.332031,-0.03125 z M 27.25,4.667969 c 0,0 -0.304688,-0.816407 -0.242188,-1.570313 C 27.035156,2.371094 27.1875,1.796875 27.1875,1.675781 27.1875,1.585938 26.492188,1.976562 26.433594,3.125 26.339844,4.246094 27.066406,4.851562 27.1875,4.851562 27.308594,4.878906 27.25,4.667969 27.25,4.667969"
        fill-opacity="1" fill-rule="evenodd" id="path8"
        transform="matrix(0.73413141,0,0,0.73073525,-4.2542799,0.42912477)" />
    </g>&#10;
  </g>&#10;</svg>