<?xml version="1.0" encoding="UTF-8" standalone="no"?>
<!-- Created with Inkscape (http://www.inkscape.org/) -->

<svg viewBox="0 0 70.643748 74.877076" version="1.1" id="svg1" xml:space="preserve" xmlns="http://www.w3.org/2000/svg"
  xmlns:svg="http://www.w3.org/2000/svg">
  <defs id="defs1">
    <linearGradient id="swatch21">
      <stop style="stop-color:#c57272;stop-opacity:0;" offset="0" id="stop21" />
    </linearGradient>
    <linearGradient id="swatch20">
      <stop style="stop-color:#477994;stop-opacity:1;" offset="0" id="stop20" />
    </linearGradient>
    <marker markerWidth="1.05" markerHeight="0.99999994" refX="0" refY="0" orient="auto-start-reverse" id="marker13"
      viewBox="0 0 1.05 1" style="overflow:visible" preserveAspectRatio="xMidYMid">
      <path style="fill:context-stroke;stroke-linecap:butt" d="M 0,-1 H 2 L 1,0 2,1 H 0 L -0.1,0 Z"
        transform="scale(0.5)" id="path13" />
    </marker>
    <marker markerWidth="1.05" markerHeight="0.99999994" refX="0" refY="0" orient="auto-start-reverse"
      id="marker13_Fnone_S-628f85" viewBox="0 0 1.05 1" style="overflow:visible" preserveAspectRatio="xMidYMid">
      <path style="fill:#628f85;stroke-linecap:butt" d="M 0,-1 H 2 L 1,0 2,1 H 0 L -0.1,0 Z" transform="scale(0.5)"
        id="path3" />
    </marker>
    <marker markerWidth="1.05" markerHeight="0.99999994" refX="0" refY="0" orient="auto-start-reverse"
      id="marker13_Fnone_S-ffffff" viewBox="0 0 1.05 1" style="overflow:visible" preserveAspectRatio="xMidYMid">
      <path style="fill:#ffffff;stroke-linecap:butt" d="M 0,-1 H 2 L 1,0 2,1 H 0 L -0.1,0 Z" transform="scale(0.5)"
        id="path1" />
    </marker>
    <marker markerWidth="1.05" markerHeight="0.99999994" refX="0" refY="0" orient="auto-start-reverse" id="CapRibbon1"
      viewBox="0 0 1.05 1" style="overflow:visible" preserveAspectRatio="xMidYMid">
      <path style="fill:context-stroke;stroke-linecap:butt" d="M 0,-1 H 2 L 1,0 2,1 H 0 L -0.1,0 Z"
        transform="scale(0.5)" id="path62" />
    </marker>
    <marker markerWidth="1.05" markerHeight="0.99999994" refX="0" refY="0" orient="auto-start-reverse"
      id="CapRibbon1_Fnone_S-628f85" viewBox="0 0 1.05 1" style="overflow:visible" preserveAspectRatio="xMidYMid">
      <path style="fill:#628f85;stroke-linecap:butt" d="M 0,-1 H 2 L 1,0 2,1 H 0 L -0.1,0 Z" transform="scale(0.5)"
        id="path6" />
    </marker>
    <marker markerWidth="1.05" markerHeight="0.99999994" refX="0" refY="0" orient="auto-start-reverse"
      id="CapRibbon1_Fnone_S-ffffff" viewBox="0 0 1.05 1" style="overflow:visible" preserveAspectRatio="xMidYMid">
      <path style="fill:#ffffff;stroke-linecap:butt" d="M 0,-1 H 2 L 1,0 2,1 H 0 L -0.1,0 Z" transform="scale(0.5)"
        id="path4" />
    </marker>
    <rect x="70.784744" y="16.230898" width="232.79789" height="100.33622" id="rect10" />
  </defs>
  <g id="layer1">
    <path id="path2"
      style="opacity:1;fill:none;fill-opacity:1;stroke:#ffffff;stroke-width:5;stroke-miterlimit:6.5;stroke-opacity:1;marker-start:url(#CapRibbon1_Fnone_S-ffffff);marker-end:url(#marker13_Fnone_S-ffffff);paint-order:fill markers stroke"
      d="M 58.729631,14.201753 A 32.65514,34.066357 0 0 1 58.205577,62.090792 32.65514,34.066357 0 0 1 12.297382,62.10894 32.65514,34.066357 0 0 1 11.738536,14.220329" />
    <path id="path38"
      style="opacity:1;fill:none;fill-opacity:1;stroke:#628f85;stroke-width:2.5;stroke-miterlimit:6.5;stroke-opacity:1;marker-start:url(#CapRibbon1_Fnone_S-628f85);marker-end:url(#marker13_Fnone_S-628f85);paint-order:fill markers stroke"
      d="M 58.729631,14.201753 A 32.65514,34.066357 0 0 1 58.205577,62.090792 32.65514,34.066357 0 0 1 12.297382,62.10894 32.65514,34.066357 0 0 1 11.738536,14.220329" />
    <text xml:space="preserve" transform="matrix(0.28672985,0,0,0.26297402,-6.6669534,-5.2910508)" id="text10"
      style="font-style:normal;font-variant:normal;font-weight:bold;font-stretch:normal;font-size:48px;font-family:'PT Sans';-inkscape-font-specification:'PT Sans, Bold';font-variant-ligatures:normal;font-variant-caps:normal;font-variant-numeric:normal;font-variant-east-asian:normal;white-space:pre;shape-inside:url(#rect10);shape-padding:1.35258;display:inline;opacity:1;fill:#4b6e66;fill-opacity:1;stroke:#ffffff;stroke-width:2.62204185;stroke-dasharray:none;stroke-opacity:1">
      <tspan x="72.138672" y="59.583984" id="tspan6">Smith's</tspan>
    </text>
    <g id="path11" />
    <path id="path0"
      d="m 33.579697,14.97949 c 0,0.01142 0.06869,0.281199 0.152642,0.599387 0.170111,0.644975 0.143397,0.869744 -0.214286,1.802277 -0.305727,0.797295 -0.314094,1.393382 -0.02862,2.018094 0.309396,0.676782 0.334934,0.678549 0.707003,0.0503 1.300258,-2.195859 1.311267,-3.253736 0.04257,-4.149988 -0.406849,-0.28744 -0.659298,-0.409957 -0.659298,-0.320072 m -6.935154,1.295135 c -0.341833,1.37194 0.0725,2.641275 1.453782,4.454037 0.897221,1.177565 0.935676,1.848809 0.232341,4.056685 -0.294573,0.924758 -0.243055,0.915688 0.598392,-0.105313 2.170033,-2.63291 2.109269,-4.492558 -0.217664,-6.655314 -0.909256,-0.84524 -1.736466,-1.666332 -1.886615,-1.872488 -0.09921,-0.1363 -0.119179,-0.122753 -0.180236,0.122397 m 14.85456,1.017587 c -2.235934,2.766148 -2.64044,4.214425 -1.617581,5.790637 l 0.226911,0.349641 0.134296,-0.744048 c 0.189337,-1.048215 0.492422,-1.8031 1.012291,-2.521467 0.875644,-1.209726 1.216157,-2.186554 1.161558,-3.331958 l -0.03053,-0.640262 -0.886946,1.097457 m -5.837293,0.545432 c -0.209151,1.431197 -0.691446,2.363847 -1.738228,3.361643 l -0.325688,0.310413 -0.165413,-0.25693 c -0.291196,-0.451659 -1.706671,-1.530387 -1.706671,-1.300434 0,0.02273 0.06956,0.255516 0.154405,0.517394 0.245696,0.756653 0.19961,1.509652 -0.145012,2.37551 -0.642719,1.614851 -0.360183,2.966412 0.893256,4.271676 0.475984,0.495483 0.563019,0.509501 0.350346,0.0563 -0.258027,-0.549671 -0.234543,-1.993591 0.03904,-2.400955 l 0.210472,-0.313711 0.435621,0.685617 c 0.239679,0.377089 0.75808,1.035494 1.152165,1.463002 l 0.716691,0.777387 0.31101,-0.533533 c 0.171137,-0.29333 0.405679,-0.881642 0.521483,-1.307149 0.19741,-0.726023 0.636259,-1.616029 1.086118,-2.202692 l 0.19682,-0.256576 0.0062,0.793996 c 0.0095,1.250132 1.176236,3.851118 1.545515,3.445757 0.69086,-0.758185 0.657396,-2.393064 -0.08527,-4.181322 -0.311599,-0.750173 -0.672072,-1.735954 -0.800939,-2.190676 -0.273143,-0.963162 -0.355041,-1.079553 -0.455728,-0.646859 -0.102012,0.438111 -0.666201,1.393851 -1.184309,2.006313 -0.563752,0.666298 -0.996291,1.415763 -1.30422,2.259945 l -0.247752,0.679372 0.05269,-0.744048 c 0.06385,-0.900607 0.250101,-1.487859 0.681318,-2.147913 1.061311,-1.62451 0.968552,-1.38266 0.968552,-2.522882 0,-1.143519 -0.106997,-1.499404 -0.702747,-2.338755 l -0.339925,-0.478754 -0.119766,0.818853 m 7.209322,1.791911 c -1.565476,1.643479 -2.11059,3.284601 -2.004179,6.034962 0.05856,1.514482 -0.07221,2.118932 -0.601622,2.780989 -0.508419,0.636022 -0.550836,0.645094 -1.052798,0.224651 -0.761751,-0.638023 -0.977214,-1.022535 -1.613179,-2.877353 -0.213114,-0.621178 -0.363262,-0.211811 -0.362527,0.987784 7.2e-4,1.131267 0.09378,1.417767 0.919089,2.83141 l 0.373976,0.640615 h 1.838125 1.83818 l 0.224856,-0.419498 c 0.357831,-0.66771 0.608812,-1.575506 0.688951,-2.492371 l 0.07427,-0.849601 0.293839,0.52081 c 0.536894,0.951854 0.800057,2.432764 0.546287,3.074321 -0.06266,0.158682 -0.021,0.166339 0.903974,0.166339 h 0.969872 l 0.165709,-0.309935 c 0.70715,-1.322818 0.532198,-2.513812 -0.646681,-4.402204 -1.671152,-2.676734 -2.058484,-3.626937 -2.069933,-5.076628 -0.0095,-1.210904 -0.0543,-1.287712 -0.486257,-0.834287 m -16.854189,0.444948 c -0.03596,0.04665 -0.114188,0.412077 -0.173925,0.812021 -0.193887,1.300081 -0.793159,2.428286 -2.338967,4.403734 -1.752613,2.239918 -2.092538,3.371894 -1.407696,4.687524 l 0.143103,0.274836 h 0.829265 0.829265 v -0.770318 c 0,-0.98425 0.400103,-2.012323 1.107399,-2.844369 0.04813,-0.05679 0.08499,0.361893 0.08366,0.950676 -0.0025,1.095691 0.136206,1.666921 0.571386,2.351595 l 0.198583,0.312416 h 1.325944 c 1.168163,0 1.33387,-0.0172 1.3939,-0.144662 0.338898,-0.720723 1.602023,-2.344057 1.602023,-2.058855 0,0.172582 0.788169,1.114422 1.411511,1.686829 l 0.562873,0.516688 h 1.330201 c 0.783618,0 1.330199,-0.03263 1.330199,-0.07953 0,-0.550966 -0.772904,-1.364871 -1.868562,-1.96779 -1.083915,-0.59644 -1.9964,-1.733481 -2.304036,-2.871345 l -0.06708,-0.247977 -0.142368,0.206627 c -0.07824,0.113562 -0.243203,0.448361 -0.366492,0.74393 -0.517227,1.239883 -1.696544,2.548327 -2.11925,2.35136 -0.676474,-0.315243 -0.859793,-1.298785 -0.546727,-2.932839 0.418742,-2.185963 0.223241,-3.421724 -0.751034,-4.748664 -0.460426,-0.627068 -0.560232,-0.72673 -0.633179,-0.631899 m 20.77654,4.370632 c -0.301763,0.789402 -0.240999,1.722643 0.173927,2.666132 0.508273,1.156008 0.467176,1.645009 -0.252009,2.996688 -0.170697,0.320897 0.505632,0.171993 0.938905,-0.206627 1.503097,-1.313981 1.558431,-2.521115 0.215462,-4.705784 -0.857006,-1.393851 -0.83587,-1.379126 -1.076285,-0.750409 m -10.705298,3.950781 c 0.03773,0.134531 0.09805,0.607395 0.134004,1.05069 l 0.06546,0.806012 h 0.757493 c 0.902797,0 0.915861,-0.0258 0.36194,-0.713536 -0.62804,-0.77986 -1.406373,-1.454522 -1.318898,-1.143166 m -20.98437,1.609903 c -1.289985,0.317246 -1.256668,1.865421 0.04593,2.130715 0.426081,0.08682 0.503136,0.0807 1.048104,-0.08257 1.495318,-0.448362 0.439289,-2.425223 -1.094045,-2.048135 m 38.818122,0.07197 c -1.482697,0.547906 -0.693355,2.366321 0.903385,2.081237 1.386266,-0.247507 1.435436,-1.841272 0.06649,-2.156395 -0.458371,-0.10555 -0.486844,-0.103316 -0.969873,0.07516 m -36.847992,0.853957 c 0.04168,0.539777 0.01996,0.633432 -0.209591,0.902259 -0.781271,0.914981 0.749566,2.419922 2.467248,2.425694 0.93127,0.003 0.930832,0.0034 0.717276,-0.763368 -0.0979,-0.351761 -0.199904,-0.723313 -0.226469,-0.825567 -0.04212,-0.162216 -0.112722,-0.186012 -0.549958,-0.186012 -0.622316,0 -0.858032,-0.151614 -1.078337,-0.693628 -0.201814,-0.496425 -0.579018,-1.021239 -0.914541,-1.27275 l -0.252008,-0.188958 0.04637,0.60233 m 35.591765,-0.327728 c -0.359886,0.303933 -0.666788,0.762189 -0.862142,1.287003 -0.166586,0.447537 -0.422411,0.593731 -1.039003,0.593731 -0.547756,0 -0.493011,-0.06986 -0.763951,0.972822 -0.212087,0.815672 -0.221333,0.805187 0.71126,0.802125 1.700506,-0.0057 3.248956,-1.504117 2.486327,-2.406022 -0.276519,-0.327257 -0.35519,-1.047979 -0.148094,-1.35851 0.163358,-0.245032 -0.03024,-0.190253 -0.384397,0.108851 m -36.621369,0.1237 c 0.141342,0.14855 0.168936,0.506202 0.04991,0.649216 -0.264925,0.318541 -0.927163,0.295334 -1.150844,-0.04017 -0.375591,-0.563337 0.620261,-1.114187 1.100941,-0.609044 m 38.912202,-0.02415 c 0.537921,0.431749 0.02244,1.103348 -0.670164,0.87316 -0.739441,-0.245856 -0.536747,-1.007457 0.284005,-1.066477 0.0734,-0.0054 0.247165,0.08176 0.386159,0.193317 M 20.087024,30.99666 v 0.330675 H 34.970201 49.853529 V 30.99666 30.665986 H 34.97022 20.087039 v 0.330674 m 0,0.878344 c 0,2.08371 1.875755,5.47292 4.086149,7.382399 8.749261,7.558987 24.132202,3.288959 25.664362,-7.124056 l 0.08204,-0.558035 H 35.003391 20.087039 v 0.299692 m 28.583375,1.332241 c -0.468938,3.012593 -3.341279,5.942721 -7.4173,7.566644 -1.339886,0.533769 -1.603197,0.559686 -0.463508,0.04558 3.881549,-1.750797 6.504669,-4.510464 7.116856,-7.487362 l 0.123291,-0.599384 h 0.357243 0.357244 l -0.07382,0.474513 m -24.051036,0.124871 c 0.819579,3.218748 3.516819,6.348907 6.951884,8.068016 0.64345,0.321957 0.593842,0.322312 -0.532491,0.0033 -4.677643,-1.324935 -8.300283,-4.436481 -8.988207,-7.72002 -0.06664,-0.318307 -0.137379,-0.643797 -0.157194,-0.723315 -0.03288,-0.131823 0.08146,-0.144664 1.279124,-0.144664 h 1.315229 l 0.131655,0.516687 m 4.268728,-0.04139 c 0.4503,3.060303 2.124975,6.295191 4.108459,7.936194 0.657834,0.544254 0.545407,0.546727 -0.498293,0.01119 -2.796605,-1.434817 -4.804896,-4.460367 -5.248149,-7.906006 l -0.06648,-0.516686 h 0.81723 0.817229 l 0.07001,0.475337 m -2.350268,8.308218 c -0.591641,1.771649 1.975852,3.036389 3.724794,1.834791 0.593549,-0.407718 0.561553,-0.458608 -0.463655,-0.73804 -0.979413,-0.266825 -2.262206,-0.766547 -2.778551,-1.082262 -0.400543,-0.244914 -0.405679,-0.245148 -0.482588,-0.01449 m 16.363235,0.02462 c -0.432098,0.286144 -2.018857,0.898134 -2.90962,1.122196 -0.8413,0.211577 -0.844236,0.214875 -0.486844,0.555798 1.262684,1.204542 3.778953,0.553089 3.94143,-1.020415 0.08572,-0.829219 -0.04593,-0.988019 -0.544966,-0.657579 M 25.802507,46.44411 c -0.666935,1.484088 -1.739255,3.864783 -2.382706,5.290206 -1.282353,2.840953 -1.245953,2.739995 -0.989542,2.741172 0.09907,4.91e-4 0.428137,0.09342 0.731075,0.206745 0.303085,0.11321 0.565514,0.205804 0.583275,0.205804 0.04784,0 0.359445,-0.679374 2.521992,-5.497543 1.081568,-2.40979 2.038966,-4.536615 2.127322,-4.726399 0.178476,-0.38286 0.128426,-0.523046 -0.186988,-0.523046 -0.115803,0 -0.431364,-0.08893 -0.701132,-0.197675 l -0.490514,-0.197792 -1.212782,2.698528 m 16.894559,-2.584353 c -0.112135,0.06644 -0.390268,0.161156 -0.617914,0.210517 -0.227791,0.04937 -0.472166,0.102961 -0.543204,0.119098 -0.100978,0.02298 -0.09629,0.09742 0.02186,0.341867 0.08308,0.171875 0.449564,0.982128 0.814442,1.800627 0.747659,1.6767 1.249182,2.794302 2.486033,5.538774 0.471434,1.045741 1.25931,2.794183 1.751144,3.885516 0.491689,1.091215 1.12648,2.504858 1.410485,3.141351 0.284005,0.636613 0.528381,1.167786 0.542912,1.180511 0.06766,0.05914 1.49664,-0.425389 1.49664,-0.5075 0,-0.05124 -0.206656,-0.539775 -0.459105,-1.085795 -0.252592,-0.545902 -0.850104,-1.866833 -1.327847,-2.935313 -0.477599,-1.068478 -1.47888,-3.300504 -2.225073,-4.96012 -0.746042,-1.659618 -1.731474,-3.854417 -2.189844,-4.87754 -0.941987,-2.102324 -0.886654,-2.014208 -1.160531,-1.851993 m -15.231325,0.653576 c 0.06296,0.131822 -0.08233,0.474513 -2.542541,5.993259 -1.609509,3.61068 -1.755988,3.875974 -1.995522,3.616924 -0.114629,-0.124048 0.01571,-0.477341 0.915274,-2.48012 0.576817,-1.284532 1.457012,-3.246903 1.955747,-4.360854 1.3211,-2.950509 1.292331,-2.893492 1.457303,-2.893492 0.08264,0 0.177009,0.05596 0.209739,0.124283 m 15.458089,-0.02085 c 0.0546,0.05679 0.900156,1.888981 1.878835,4.071412 0.978681,2.182429 2.447287,5.454542 3.263489,7.271428 1.449966,3.227701 1.550506,3.516908 1.221882,3.516908 -0.203427,0 -0.06517,0.279901 -2.104866,-4.257422 -0.960626,-2.137076 -2.41661,-5.371373 -3.235308,-7.187317 -0.818843,-1.81606 -1.465377,-3.35057 -1.436904,-3.410178 0.06546,-0.137124 0.283125,-0.139716 0.412872,-0.0048 m -19.746931,2.787095 c 0,0.28591 1.870323,0.34858 1.937693,0.06492 0.03083,-0.129584 -0.06809,-0.144664 -0.951675,-0.144664 -0.564634,0 -0.986018,0.03405 -0.986018,0.07976 m 4.395252,-0.02521 c -0.336989,0.270477 -0.184934,0.276132 7.457075,0.276132 7.112599,0 7.52459,-0.0079 7.49186,-0.144663 -0.03581,-0.149253 -14.765323,-0.27872 -14.948935,-0.131465 m 17.377875,0.07623 c 0.03434,0.07197 0.06252,0.146313 0.06252,0.165278 0,0.136299 1.531278,0.0185 1.699479,-0.130762 0.185228,-0.164218 0.179943,-0.165278 -0.81899,-0.165278 -0.874619,0 -0.997321,0.01708 -0.943015,0.130762 m -20.949146,0.40548 c 0,0.07363 0.741496,0.290032 0.834991,0.243735 0.267713,-0.132882 0.07001,-0.284023 -0.371482,-0.284023 -0.254943,0 -0.463509,0.01815 -0.463509,0.04029 m 3.239272,0.246444 c -0.218838,0.420207 -0.194327,0.457315 0.302646,0.457315 0.281801,0 0.698636,0.09119 1.107251,0.242086 1.573402,0.581244 11.296646,0.558743 12.742797,-0.02933 0.355776,-0.144779 0.688657,-0.212751 1.04135,-0.212751 0.565956,0 0.591053,-0.03111 0.369135,-0.457315 l -0.14927,-0.286776 h -7.632319 -7.632321 l -0.149268,0.286734 m 17.978467,-0.121337 c 0,0.197439 0.01067,0.198499 0.466737,0.04558 0.46527,-0.15609 0.451032,-0.210986 -0.05475,-0.210986 -0.343302,0 -0.411992,0.02757 -0.411992,0.165396 M 20.44751,54.741418 c -2.550908,0.257989 -4.363843,2.452436 -3.70454,4.483958 0.901769,2.779106 5.13161,3.702449 7.618378,1.663272 3.089711,-2.533486 0.50431,-6.594177 -3.913838,-6.14723 m 1.958827,0.429864 c 0.436207,0.144781 1.388028,0.635198 1.388321,0.715422 1.47e-4,0.02638 -0.287673,-0.06668 -0.639634,-0.206628 -3.372981,-1.342018 -7.013087,1.786375 -5.120015,4.4002 0.256558,0.354238 0.249513,0.443883 -0.01408,0.181302 -2.540341,-2.530422 0.714488,-6.308384 4.385418,-5.090296 m -0.123437,1.244714 c 1.289544,0.491123 1.87047,1.777655 1.269876,2.812797 -1.193407,2.056849 -4.999073,1.393498 -5.008467,-0.873043 -0.0066,-1.571147 1.988621,-2.606286 3.738591,-1.939754 m 3.675038,1.365109 c 0,0.141363 0.06825,0.165749 0.46351,0.165749 h 0.46336 v 0.339038 0.338922 l -0.46336,-0.02957 c -0.423441,-0.02698 -0.46351,-0.01344 -0.46351,0.157031 v 0.186601 h 10.337488 c 10.31914,0 10.338661,-3.54e-4 10.866309,-0.176351 0.549809,-0.183303 0.580045,-0.209573 0.442666,-0.383215 -0.06487,-0.0821 -0.198291,-0.06644 -0.613068,0.07186 -0.659451,0.220057 -0.870363,0.170581 -0.826625,-0.193786 0.03199,-0.266707 0.03802,-0.269418 0.631123,-0.294156 0.498586,-0.02073 0.593107,-0.04841 0.565075,-0.165279 C 47.303376,57.55822 25.95795,57.541491 25.95795,57.781109 m 23.399659,-0.02027 c 0.05446,0.230776 0.804901,0.25469 0.804901,0.02567 0,-0.144075 -0.06458,-0.170344 -0.419622,-0.170344 -0.343889,0 -0.413313,0.02603 -0.385279,0.144662 m -19.299275,0.496072 -0.03199,0.309942 h -1.339012 -1.339007 l -0.03199,-0.309942 -0.03184,-0.31006 h 1.402851 1.402999 l -0.03199,0.31006 m 3.160897,0.02061 v 0.289326 l -1.184455,0.02404 c -1.491357,0.03016 -1.647963,0.0015 -1.647963,-0.301105 0,-0.343515 0.02759,-0.349524 1.487687,-0.324548 l 1.344731,0.02297 v 0.289326 m 3.14152,0.0024 v 0.333149 l -1.364692,-0.02309 -1.364838,-0.02309 -0.03184,-0.309941 -0.03199,-0.31006 h 1.396687 1.396689 v 0.333031 m 3.173371,-0.02297 -0.03199,0.30994 -1.364692,0.02309 -1.364692,0.02309 v -0.333138 -0.333032 h 1.396688 1.396688 l -0.03199,0.310061 m 3.090005,0 -0.03199,0.309941 H 41.25318 39.914173 l -0.03185,-0.309941 -0.03199,-0.310061 h 1.402851 1.403001 l -0.03199,0.310061 m 3.19289,0 -0.03199,0.309941 H 44.446187 43.10718 L 43.07519,58.256958 43.0432,57.946897 h 1.402999 1.402853 l -0.03199,0.310061 m -21.65205,0.611334 c -0.367958,1.847162 -3.144309,2.731044 -4.829111,1.537336 l -0.330386,-0.233957 0.411991,0.194732 c 1.952516,0.922635 3.895345,0.388749 4.511202,-1.239651 0.255384,-0.675603 0.337137,-0.765016 0.236304,-0.25846 m 25.740096,0.982837 c -0.113308,0.04194 -0.472608,0.154204 -0.798297,0.249388 -0.664292,0.194022 -0.679557,0.225596 -0.432539,0.893543 0.281511,0.760657 0.578285,0.941722 1.55124,0.946785 1.270611,0.0066 1.368362,-0.242555 0.58166,-1.482086 -0.421532,-0.664176 -0.538068,-0.742633 -0.902064,-0.60763"
      stroke="none" fill="#000000" fill-rule="evenodd"
      style="fill:#628f85;fill-opacity:1;stroke:#ffffff;stroke-width:0.233551;stroke-dasharray:none;stroke-dashoffset:0;stroke-opacity:0;paint-order:normal" />
    <path id="path5"
      d="m 33.579697,14.97949 c 0,0.01142 0.06869,0.281199 0.152642,0.599387 0.170111,0.644975 0.143397,0.869744 -0.214286,1.802277 -0.305727,0.797295 -0.314094,1.393382 -0.02862,2.018094 0.309396,0.676782 0.334934,0.678549 0.707003,0.0503 1.300258,-2.195859 1.311267,-3.253736 0.04257,-4.149988 -0.406849,-0.28744 -0.659298,-0.409957 -0.659298,-0.320072 m -6.935154,1.295135 c -0.341833,1.37194 0.0725,2.641275 1.453782,4.454037 0.897221,1.177565 0.935676,1.848809 0.232341,4.056685 -0.294573,0.924758 -0.243055,0.915688 0.598392,-0.105313 2.170033,-2.63291 2.109269,-4.492558 -0.217664,-6.655314 -0.909256,-0.84524 -1.736466,-1.666332 -1.886615,-1.872488 -0.09921,-0.1363 -0.119179,-0.122753 -0.180236,0.122397 m 14.85456,1.017587 c -2.235934,2.766148 -2.64044,4.214425 -1.617581,5.790637 l 0.226911,0.349641 0.134296,-0.744048 c 0.189337,-1.048215 0.492422,-1.8031 1.012291,-2.521467 0.875644,-1.209726 1.216157,-2.186554 1.161558,-3.331958 l -0.03053,-0.640262 -0.886946,1.097457 m -5.837293,0.545432 c -0.209151,1.431197 -0.691446,2.363847 -1.738228,3.361643 l -0.325688,0.310413 -0.165413,-0.25693 c -0.291196,-0.451659 -1.706671,-1.530387 -1.706671,-1.300434 0,0.02273 0.06956,0.255516 0.154405,0.517394 0.245696,0.756653 0.19961,1.509652 -0.145012,2.37551 -0.642719,1.614851 -0.360183,2.966412 0.893256,4.271676 0.475984,0.495483 0.563019,0.509501 0.350346,0.0563 -0.258027,-0.549671 -0.234543,-1.993591 0.03904,-2.400955 l 0.210472,-0.313711 0.435621,0.685617 c 0.239679,0.377089 0.75808,1.035494 1.152165,1.463002 l 0.716691,0.777387 0.31101,-0.533533 c 0.171137,-0.29333 0.405679,-0.881642 0.521483,-1.307149 0.19741,-0.726023 0.636259,-1.616029 1.086118,-2.202692 l 0.19682,-0.256576 0.0062,0.793996 c 0.0095,1.250132 1.176236,3.851118 1.545515,3.445757 0.69086,-0.758185 0.657396,-2.393064 -0.08527,-4.181322 -0.311599,-0.750173 -0.672072,-1.735954 -0.800939,-2.190676 -0.273143,-0.963162 -0.355041,-1.079553 -0.455728,-0.646859 -0.102012,0.438111 -0.666201,1.393851 -1.184309,2.006313 -0.563752,0.666298 -0.996291,1.415763 -1.30422,2.259945 l -0.247752,0.679372 0.05269,-0.744048 c 0.06385,-0.900607 0.250101,-1.487859 0.681318,-2.147913 1.061311,-1.62451 0.968552,-1.38266 0.968552,-2.522882 0,-1.143519 -0.106997,-1.499404 -0.702747,-2.338755 l -0.339925,-0.478754 -0.119766,0.818853 m 7.209322,1.791911 c -1.565476,1.643479 -2.11059,3.284601 -2.004179,6.034962 0.05856,1.514482 -0.07221,2.118932 -0.601622,2.780989 -0.508419,0.636022 -0.550836,0.645094 -1.052798,0.224651 -0.761751,-0.638023 -0.977214,-1.022535 -1.613179,-2.877353 -0.213114,-0.621178 -0.363262,-0.211811 -0.362527,0.987784 7.2e-4,1.131267 0.09378,1.417767 0.919089,2.83141 l 0.373976,0.640615 h 1.838125 1.83818 l 0.224856,-0.419498 c 0.357831,-0.66771 0.608812,-1.575506 0.688951,-2.492371 l 0.07427,-0.849601 0.293839,0.52081 c 0.536894,0.951854 0.800057,2.432764 0.546287,3.074321 -0.06266,0.158682 -0.021,0.166339 0.903974,0.166339 h 0.969872 l 0.165709,-0.309935 c 0.70715,-1.322818 0.532198,-2.513812 -0.646681,-4.402204 -1.671152,-2.676734 -2.058484,-3.626937 -2.069933,-5.076628 -0.0095,-1.210904 -0.0543,-1.287712 -0.486257,-0.834287 m -16.854189,0.444948 c -0.03596,0.04665 -0.114188,0.412077 -0.173925,0.812021 -0.193887,1.300081 -0.793159,2.428286 -2.338967,4.403734 -1.752613,2.239918 -2.092538,3.371894 -1.407696,4.687524 l 0.143103,0.274836 h 0.829265 0.829265 v -0.770318 c 0,-0.98425 0.400103,-2.012323 1.107399,-2.844369 0.04813,-0.05679 0.08499,0.361893 0.08366,0.950676 -0.0025,1.095691 0.136206,1.666921 0.571386,2.351595 l 0.198583,0.312416 h 1.325944 c 1.168163,0 1.33387,-0.0172 1.3939,-0.144662 0.338898,-0.720723 1.602023,-2.344057 1.602023,-2.058855 0,0.172582 0.788169,1.114422 1.411511,1.686829 l 0.562873,0.516688 h 1.330201 c 0.783618,0 1.330199,-0.03263 1.330199,-0.07953 0,-0.550966 -0.772904,-1.364871 -1.868562,-1.96779 -1.083915,-0.59644 -1.9964,-1.733481 -2.304036,-2.871345 l -0.06708,-0.247977 -0.142368,0.206627 c -0.07824,0.113562 -0.243203,0.448361 -0.366492,0.74393 -0.517227,1.239883 -1.696544,2.548327 -2.11925,2.35136 -0.676474,-0.315243 -0.859793,-1.298785 -0.546727,-2.932839 0.418742,-2.185963 0.223241,-3.421724 -0.751034,-4.748664 -0.460426,-0.627068 -0.560232,-0.72673 -0.633179,-0.631899 m 20.77654,4.370632 c -0.301763,0.789402 -0.240999,1.722643 0.173927,2.666132 0.508273,1.156008 0.467176,1.645009 -0.252009,2.996688 -0.170697,0.320897 0.505632,0.171993 0.938905,-0.206627 1.503097,-1.313981 1.558431,-2.521115 0.215462,-4.705784 -0.857006,-1.393851 -0.83587,-1.379126 -1.076285,-0.750409 m -10.705298,3.950781 c 0.03773,0.134531 0.09805,0.607395 0.134004,1.05069 l 0.06546,0.806012 h 0.757493 c 0.902797,0 0.915861,-0.0258 0.36194,-0.713536 -0.62804,-0.77986 -1.406373,-1.454522 -1.318898,-1.143166 m -20.98437,1.609903 c -1.289985,0.317246 -1.256668,1.865421 0.04593,2.130715 0.426081,0.08682 0.503136,0.0807 1.048104,-0.08257 1.495318,-0.448362 0.439289,-2.425223 -1.094045,-2.048135 m 38.818122,0.07197 c -1.482697,0.547906 -0.693355,2.366321 0.903385,2.081237 1.386266,-0.247507 1.435436,-1.841272 0.06649,-2.156395 -0.458371,-0.10555 -0.486844,-0.103316 -0.969873,0.07516 m -36.847992,0.853957 c 0.04168,0.539777 0.01996,0.633432 -0.209591,0.902259 -0.781271,0.914981 0.749566,2.419922 2.467248,2.425694 0.93127,0.003 0.930832,0.0034 0.717276,-0.763368 -0.0979,-0.351761 -0.199904,-0.723313 -0.226469,-0.825567 -0.04212,-0.162216 -0.112722,-0.186012 -0.549958,-0.186012 -0.622316,0 -0.858032,-0.151614 -1.078337,-0.693628 -0.201814,-0.496425 -0.579018,-1.021239 -0.914541,-1.27275 l -0.252008,-0.188958 0.04637,0.60233 m 35.591765,-0.327728 c -0.359886,0.303933 -0.666788,0.762189 -0.862142,1.287003 -0.166586,0.447537 -0.422411,0.593731 -1.039003,0.593731 -0.547756,0 -0.493011,-0.06986 -0.763951,0.972822 -0.212087,0.815672 -0.221333,0.805187 0.71126,0.802125 1.700506,-0.0057 3.248956,-1.504117 2.486327,-2.406022 -0.276519,-0.327257 -0.35519,-1.047979 -0.148094,-1.35851 0.163358,-0.245032 -0.03024,-0.190253 -0.384397,0.108851 m -36.621369,0.1237 c 0.141342,0.14855 0.168936,0.506202 0.04991,0.649216 -0.264925,0.318541 -0.927163,0.295334 -1.150844,-0.04017 -0.375591,-0.563337 0.620261,-1.114187 1.100941,-0.609044 m 38.912202,-0.02415 c 0.537921,0.431749 0.02244,1.103348 -0.670164,0.87316 -0.739441,-0.245856 -0.536747,-1.007457 0.284005,-1.066477 0.0734,-0.0054 0.247165,0.08176 0.386159,0.193317 M 20.087024,30.99666 v 0.330675 H 34.970201 49.853529 V 30.99666 30.665986 H 34.97022 20.087039 v 0.330674 m 0,0.878344 c 0,2.08371 1.875755,5.47292 4.086149,7.382399 8.749261,7.558987 24.132202,3.288959 25.664362,-7.124056 l 0.08204,-0.558035 H 35.003391 20.087039 v 0.299692 m 28.583375,1.332241 c -0.468938,3.012593 -3.341279,5.942721 -7.4173,7.566644 -1.339886,0.533769 -1.603197,0.559686 -0.463508,0.04558 3.881549,-1.750797 6.504669,-4.510464 7.116856,-7.487362 l 0.123291,-0.599384 h 0.357243 0.357244 l -0.07382,0.474513 m -24.051036,0.124871 c 0.819579,3.218748 3.516819,6.348907 6.951884,8.068016 0.64345,0.321957 0.593842,0.322312 -0.532491,0.0033 -4.677643,-1.324935 -8.300283,-4.436481 -8.988207,-7.72002 -0.06664,-0.318307 -0.137379,-0.643797 -0.157194,-0.723315 -0.03288,-0.131823 0.08146,-0.144664 1.279124,-0.144664 h 1.315229 l 0.131655,0.516687 m 4.268728,-0.04139 c 0.4503,3.060303 2.124975,6.295191 4.108459,7.936194 0.657834,0.544254 0.545407,0.546727 -0.498293,0.01119 -2.796605,-1.434817 -4.804896,-4.460367 -5.248149,-7.906006 l -0.06648,-0.516686 h 0.81723 0.817229 l 0.07001,0.475337 m -2.350268,8.308218 c -0.591641,1.771649 1.975852,3.036389 3.724794,1.834791 0.593549,-0.407718 0.561553,-0.458608 -0.463655,-0.73804 -0.979413,-0.266825 -2.262206,-0.766547 -2.778551,-1.082262 -0.400543,-0.244914 -0.405679,-0.245148 -0.482588,-0.01449 m 16.363235,0.02462 c -0.432098,0.286144 -2.018857,0.898134 -2.90962,1.122196 -0.8413,0.211577 -0.844236,0.214875 -0.486844,0.555798 1.262684,1.204542 3.778953,0.553089 3.94143,-1.020415 0.08572,-0.829219 -0.04593,-0.988019 -0.544966,-0.657579 M 25.802507,46.44411 c -0.666935,1.484088 -1.739255,3.864783 -2.382706,5.290206 -1.282353,2.840953 -1.245953,2.739995 -0.989542,2.741172 0.09907,4.91e-4 0.428137,0.09342 0.731075,0.206745 0.303085,0.11321 0.565514,0.205804 0.583275,0.205804 0.04784,0 0.359445,-0.679374 2.521992,-5.497543 1.081568,-2.40979 2.038966,-4.536615 2.127322,-4.726399 0.178476,-0.38286 0.128426,-0.523046 -0.186988,-0.523046 -0.115803,0 -0.431364,-0.08893 -0.701132,-0.197675 l -0.490514,-0.197792 -1.212782,2.698528 m 16.894559,-2.584353 c -0.112135,0.06644 -0.390268,0.161156 -0.617914,0.210517 -0.227791,0.04937 -0.472166,0.102961 -0.543204,0.119098 -0.100978,0.02298 -0.09629,0.09742 0.02186,0.341867 0.08308,0.171875 0.449564,0.982128 0.814442,1.800627 0.747659,1.6767 1.249182,2.794302 2.486033,5.538774 0.471434,1.045741 1.25931,2.794183 1.751144,3.885516 0.491689,1.091215 1.12648,2.504858 1.410485,3.141351 0.284005,0.636613 0.528381,1.167786 0.542912,1.180511 0.06766,0.05914 1.49664,-0.425389 1.49664,-0.5075 0,-0.05124 -0.206656,-0.539775 -0.459105,-1.085795 -0.252592,-0.545902 -0.850104,-1.866833 -1.327847,-2.935313 -0.477599,-1.068478 -1.47888,-3.300504 -2.225073,-4.96012 -0.746042,-1.659618 -1.731474,-3.854417 -2.189844,-4.87754 -0.941987,-2.102324 -0.886654,-2.014208 -1.160531,-1.851993 m -15.231325,0.653576 c 0.06296,0.131822 -0.08233,0.474513 -2.542541,5.993259 -1.609509,3.61068 -1.755988,3.875974 -1.995522,3.616924 -0.114629,-0.124048 0.01571,-0.477341 0.915274,-2.48012 0.576817,-1.284532 1.457012,-3.246903 1.955747,-4.360854 1.3211,-2.950509 1.292331,-2.893492 1.457303,-2.893492 0.08264,0 0.177009,0.05596 0.209739,0.124283 m 15.458089,-0.02085 c 0.0546,0.05679 0.900156,1.888981 1.878835,4.071412 0.978681,2.182429 2.447287,5.454542 3.263489,7.271428 1.449966,3.227701 1.550506,3.516908 1.221882,3.516908 -0.203427,0 -0.06517,0.279901 -2.104866,-4.257422 -0.960626,-2.137076 -2.41661,-5.371373 -3.235308,-7.187317 -0.818843,-1.81606 -1.465377,-3.35057 -1.436904,-3.410178 0.06546,-0.137124 0.283125,-0.139716 0.412872,-0.0048 m -19.746931,2.787095 c 0,0.28591 1.870323,0.34858 1.937693,0.06492 0.03083,-0.129584 -0.06809,-0.144664 -0.951675,-0.144664 -0.564634,0 -0.986018,0.03405 -0.986018,0.07976 m 4.395252,-0.02521 c -0.336989,0.270477 -0.184934,0.276132 7.457075,0.276132 7.112599,0 7.52459,-0.0079 7.49186,-0.144663 -0.03581,-0.149253 -14.765323,-0.27872 -14.948935,-0.131465 m 17.377875,0.07623 c 0.03434,0.07197 0.06252,0.146313 0.06252,0.165278 0,0.136299 1.531278,0.0185 1.699479,-0.130762 0.185228,-0.164218 0.179943,-0.165278 -0.81899,-0.165278 -0.874619,0 -0.997321,0.01708 -0.943015,0.130762 m -20.949146,0.40548 c 0,0.07363 0.741496,0.290032 0.834991,0.243735 0.267713,-0.132882 0.07001,-0.284023 -0.371482,-0.284023 -0.254943,0 -0.463509,0.01815 -0.463509,0.04029 m 3.239272,0.246444 c -0.218838,0.420207 -0.194327,0.457315 0.302646,0.457315 0.281801,0 0.698636,0.09119 1.107251,0.242086 1.573402,0.581244 11.296646,0.558743 12.742797,-0.02933 0.355776,-0.144779 0.688657,-0.212751 1.04135,-0.212751 0.565956,0 0.591053,-0.03111 0.369135,-0.457315 l -0.14927,-0.286776 h -7.632319 -7.632321 l -0.149268,0.286734 m 17.978467,-0.121337 c 0,0.197439 0.01067,0.198499 0.466737,0.04558 0.46527,-0.15609 0.451032,-0.210986 -0.05475,-0.210986 -0.343302,0 -0.411992,0.02757 -0.411992,0.165396 M 20.44751,54.741418 c -2.550908,0.257989 -4.363843,2.452436 -3.70454,4.483958 0.901769,2.779106 5.13161,3.702449 7.618378,1.663272 3.089711,-2.533486 0.50431,-6.594177 -3.913838,-6.14723 m 1.958827,0.429864 c 0.436207,0.144781 1.388028,0.635198 1.388321,0.715422 1.47e-4,0.02638 -0.287673,-0.06668 -0.639634,-0.206628 -3.372981,-1.342018 -7.013087,1.786375 -5.120015,4.4002 0.256558,0.354238 0.249513,0.443883 -0.01408,0.181302 -2.540341,-2.530422 0.714488,-6.308384 4.385418,-5.090296 m -0.123437,1.244714 c 1.289544,0.491123 1.87047,1.777655 1.269876,2.812797 -1.193407,2.056849 -4.999073,1.393498 -5.008467,-0.873043 -0.0066,-1.571147 1.988621,-2.606286 3.738591,-1.939754 m 3.675038,1.365109 c 0,0.141363 0.06825,0.165749 0.46351,0.165749 h 0.46336 v 0.339038 0.338922 l -0.46336,-0.02957 c -0.423441,-0.02698 -0.46351,-0.01344 -0.46351,0.157031 v 0.186601 h 10.337488 c 10.31914,0 10.338661,-3.54e-4 10.866309,-0.176351 0.549809,-0.183303 0.580045,-0.209573 0.442666,-0.383215 -0.06487,-0.0821 -0.198291,-0.06644 -0.613068,0.07186 -0.659451,0.220057 -0.870363,0.170581 -0.826625,-0.193786 0.03199,-0.266707 0.03802,-0.269418 0.631123,-0.294156 0.498586,-0.02073 0.593107,-0.04841 0.565075,-0.165279 C 47.303376,57.55822 25.95795,57.541491 25.95795,57.781109 m 23.399659,-0.02027 c 0.05446,0.230776 0.804901,0.25469 0.804901,0.02567 0,-0.144075 -0.06458,-0.170344 -0.419622,-0.170344 -0.343889,0 -0.413313,0.02603 -0.385279,0.144662 m -19.299275,0.496072 -0.03199,0.309942 h -1.339012 -1.339007 l -0.03199,-0.309942 -0.03184,-0.31006 h 1.402851 1.402999 l -0.03199,0.31006 m 3.160897,0.02061 v 0.289326 l -1.184455,0.02404 c -1.491357,0.03016 -1.647963,0.0015 -1.647963,-0.301105 0,-0.343515 0.02759,-0.349524 1.487687,-0.324548 l 1.344731,0.02297 v 0.289326 m 3.14152,0.0024 v 0.333149 l -1.364692,-0.02309 -1.364838,-0.02309 -0.03184,-0.309941 -0.03199,-0.31006 h 1.396687 1.396689 v 0.333031 m 3.173371,-0.02297 -0.03199,0.30994 -1.364692,0.02309 -1.364692,0.02309 v -0.333138 -0.333032 h 1.396688 1.396688 l -0.03199,0.310061 m 3.090005,0 -0.03199,0.309941 H 41.25318 39.914173 l -0.03185,-0.309941 -0.03199,-0.310061 h 1.402851 1.403001 l -0.03199,0.310061 m 3.19289,0 -0.03199,0.309941 H 44.446187 43.10718 L 43.07519,58.256958 43.0432,57.946897 h 1.402999 1.402853 l -0.03199,0.310061 m -21.65205,0.611334 c -0.367958,1.847162 -3.144309,2.731044 -4.829111,1.537336 l -0.330386,-0.233957 0.411991,0.194732 c 1.952516,0.922635 3.895345,0.388749 4.511202,-1.239651 0.255384,-0.675603 0.337137,-0.765016 0.236304,-0.25846 m 25.740096,0.982837 c -0.113308,0.04194 -0.472608,0.154204 -0.798297,0.249388 -0.664292,0.194022 -0.679557,0.225596 -0.432539,0.893543 0.281511,0.760657 0.578285,0.941722 1.55124,0.946785 1.270611,0.0066 1.368362,-0.242555 0.58166,-1.482086 -0.421532,-0.664176 -0.538068,-0.742633 -0.902064,-0.60763"
      stroke="none" fill="#000000" fill-rule="evenodd"
      style="fill:#628f85;fill-opacity:1;stroke:#ffffff;stroke-width:0.434;stroke-dasharray:none;stroke-dashoffset:0;stroke-opacity:0.983707;paint-order:normal" />
  </g>
</svg>