<svg xmlns="http://www.w3.org/2000/svg" xmlns:xlink="http://www.w3.org/1999/xlink" width="400" zoomAndPan="magnify"
    viewBox="0 0 300 74.999997" height="100" preserveAspectRatio="xMidYMid meet" version="1.0">
    <defs>
        <g />
        <clipPath id="dba56f5d1a">
            <path d="M 0.0234375 3.023438 L 62.695312 3.023438 L 62.695312 75 L 0.0234375 75 Z M 0.0234375 3.023438 "
                clip-rule="nonzero" />
        </clipPath>
    </defs>
    <g clip-path="url(#dba56f5d1a)">
        <path fill="white"
            d="M 13.371094 35.738281 C 13.371094 36.632812 13.613281 39.316406 14.023438 40.375 C 14.59375 41.679688 16.222656 44.121094 21.996094 45.421875 C 27.695312 46.808594 34.699219 46.886719 40.800781 45.746094 C 46.90625 44.609375 50.976562 42.003906 51.546875 41.273438 C 52.035156 40.703125 51.871094 36.957031 51.789062 35.65625 C 51.789062 33.945312 50.488281 33.457031 49.019531 32.886719 C 48.613281 32.804688 48.128906 32.644531 47.71875 32.398438 C 46.90625 31.992188 46.171875 31.585938 45.523438 31.097656 C 44.871094 30.527344 44.222656 29.957031 43.570312 29.0625 C 42.835938 28.085938 41.859375 27.269531 40.640625 26.703125 C 39.417969 26.214844 38.117188 25.886719 36.730469 25.886719 C 35.1875 25.96875 33.636719 26.457031 31.765625 27.191406 C 30.300781 27.761719 28.59375 28.328125 26.394531 28.898438 C 24.195312 29.386719 22.40625 29.550781 20.859375 29.710938 C 19.070312 29.875 17.523438 30.039062 15.976562 30.6875 C 15.160156 31.015625 14.59375 31.421875 14.105469 31.992188 C 13.613281 32.5625 13.289062 33.210938 13.210938 33.863281 C 13.046875 34.515625 13.125 35.085938 13.371094 35.738281 Z M 33.636719 31.503906 C 34.699219 31.503906 35.59375 31.828125 35.59375 32.316406 C 35.59375 32.726562 34.699219 33.050781 33.636719 33.050781 C 33.148438 33.050781 32.582031 32.96875 32.253906 32.804688 C 32.742188 33.457031 33.964844 33.863281 35.265625 33.863281 C 37.054688 33.863281 38.605469 33.132812 38.605469 32.152344 C 38.605469 31.992188 38.523438 31.746094 38.359375 31.585938 C 39.09375 31.992188 39.578125 32.480469 39.578125 33.132812 C 39.578125 34.269531 37.710938 35.25 35.429688 35.25 C 33.148438 35.25 31.359375 34.269531 31.359375 33.132812 C 31.359375 32.804688 31.441406 32.480469 31.6875 32.238281 C 31.765625 31.828125 32.582031 31.503906 33.636719 31.503906 Z M 35.429688 29.957031 C 35.429688 29.957031 37.21875 28.167969 38.765625 28.328125 C 40.394531 28.492188 41.453125 29.550781 41.453125 29.550781 C 41.453125 29.550781 40.3125 29.0625 39.253906 29.0625 C 38.117188 29.0625 37.21875 29.710938 36.40625 30.039062 C 35.511719 30.363281 34.859375 30.363281 34.859375 30.363281 Z M 31.195312 37.691406 C 31.195312 37.691406 33.882812 37.933594 37.21875 36.710938 C 40.476562 35.574219 41.535156 33.945312 42.589844 33.621094 C 43.570312 33.210938 44.058594 33.292969 44.058594 33.292969 C 44.058594 33.292969 43.160156 33.78125 42.265625 34.597656 C 41.371094 35.328125 41.128906 35.980469 41.128906 35.980469 C 41.128906 35.980469 41.777344 35.898438 43.570312 35.410156 C 45.359375 35.003906 45.847656 34.679688 45.847656 34.679688 C 45.847656 34.679688 45.765625 35.410156 43.894531 36.144531 C 42.023438 36.792969 40.722656 37.039062 39.988281 37.445312 C 39.171875 37.773438 37.710938 38.097656 35.347656 38.179688 C 32.90625 38.339844 31.195312 37.691406 31.195312 37.691406 Z M 17.847656 33.210938 C 17.847656 33.210938 16.871094 34.191406 17.359375 34.921875 C 17.847656 35.738281 19.722656 34.921875 20.535156 34.269531 C 21.265625 33.699219 22.976562 32.480469 24.359375 32.316406 C 25.746094 32.152344 26.71875 31.910156 27.207031 31.828125 C 27.617188 31.667969 27.859375 31.585938 27.859375 31.746094 C 27.859375 31.828125 26.640625 32.726562 25.417969 33.132812 C 24.195312 33.621094 23.871094 33.699219 23.382812 34.191406 C 22.894531 34.679688 22.734375 34.839844 22.734375 34.839844 C 22.734375 34.839844 24.035156 34.679688 24.929688 34.679688 C 25.746094 34.757812 26.476562 34.679688 26.558594 34.597656 C 26.640625 34.597656 25.660156 35.25 24.523438 35.410156 C 23.382812 35.574219 22.570312 35.574219 21.996094 35.816406 C 21.347656 36.144531 20.128906 36.710938 18.984375 36.792969 C 17.847656 36.792969 16.546875 36.550781 16.136719 35.574219 C 15.734375 34.597656 16.136719 34.027344 16.710938 33.539062 C 17.359375 33.050781 17.847656 33.210938 17.847656 33.210938 Z M 3.851562 34.839844 C 4.335938 34.839844 4.664062 35.164062 4.664062 35.574219 C 4.664062 36.0625 4.335938 36.386719 3.851562 36.386719 C 3.441406 36.386719 3.113281 36.0625 3.113281 35.574219 C 3.113281 35.164062 3.441406 34.839844 3.851562 34.839844 Z M 4.824219 22.792969 C 5.3125 22.792969 5.636719 23.121094 5.636719 23.527344 C 5.636719 23.933594 5.3125 24.339844 4.824219 24.339844 C 4.414062 24.339844 4.089844 23.933594 4.089844 23.527344 C 4.089844 23.121094 4.414062 22.792969 4.824219 22.792969 Z M 7.265625 17.339844 C 7.675781 17.339844 8.082031 16.933594 8.082031 16.527344 C 8.082031 16.121094 7.675781 15.796875 7.265625 15.796875 C 6.859375 15.796875 6.453125 16.121094 6.453125 16.527344 C 6.453125 16.933594 6.859375 17.339844 7.265625 17.339844 Z M 0.675781 21.167969 C 1.078125 21.167969 1.324219 20.921875 1.324219 20.515625 C 1.324219 20.191406 1.078125 19.863281 0.675781 19.863281 C 0.351562 19.863281 0.0234375 20.191406 0.0234375 20.515625 C 0.0234375 20.921875 0.351562 21.167969 0.675781 21.167969 Z M 36.972656 4.640625 C 37.382812 4.640625 37.710938 4.234375 37.710938 3.828125 C 37.710938 3.421875 37.382812 3.097656 36.972656 3.097656 C 36.488281 3.097656 36.160156 3.421875 36.160156 3.828125 C 36.160156 4.234375 36.488281 4.640625 36.972656 4.640625 Z M 38.605469 10.828125 C 38.929688 10.828125 39.253906 10.503906 39.253906 10.179688 C 39.253906 9.769531 38.929688 9.527344 38.605469 9.527344 C 38.199219 9.527344 37.871094 9.769531 37.871094 10.179688 C 37.871094 10.503906 38.199219 10.828125 38.605469 10.828125 Z M 58.460938 11.5625 C 58.871094 11.5625 59.117188 11.316406 59.117188 10.910156 C 59.117188 10.585938 58.871094 10.257812 58.460938 10.257812 C 58.136719 10.257812 57.8125 10.585938 57.8125 10.910156 C 57.8125 11.316406 58.136719 11.5625 58.460938 11.5625 Z M 61.964844 19.945312 C 62.371094 19.945312 62.695312 19.621094 62.695312 19.210938 C 62.695312 18.886719 62.371094 18.5625 61.964844 18.5625 C 61.636719 18.5625 61.3125 18.886719 61.3125 19.210938 C 61.3125 19.621094 61.636719 19.945312 61.964844 19.945312 Z M 59.523438 28.65625 C 60.09375 28.65625 60.5 28.25 60.5 27.675781 C 60.5 27.109375 60.09375 26.621094 59.523438 26.621094 C 58.953125 26.621094 58.460938 27.109375 58.460938 27.675781 C 58.460938 28.25 58.953125 28.65625 59.523438 28.65625 Z M 59.929688 32.96875 C 60.253906 32.96875 60.582031 32.644531 60.582031 32.316406 C 60.582031 31.910156 60.253906 31.667969 59.929688 31.667969 C 59.523438 31.667969 59.199219 31.910156 59.199219 32.316406 C 59.199219 32.644531 59.523438 32.96875 59.929688 32.96875 Z M 56.269531 35.574219 C 59.847656 37.527344 62.128906 40.050781 62.371094 42.734375 C 62.371094 42.816406 62.371094 42.816406 62.371094 42.898438 C 62.371094 42.980469 62.371094 42.980469 62.371094 42.980469 C 62.371094 43.0625 62.371094 43.0625 62.371094 43.140625 C 62.371094 43.386719 62.371094 43.628906 62.289062 43.878906 L 62.289062 44.039062 C 62.210938 44.851562 62.210938 45.746094 62.128906 46.074219 C 61.3125 52.75 58.382812 58.121094 54.148438 62.027344 C 55.53125 65.691406 57.976562 73.097656 57.894531 73.339844 C 57.730469 73.585938 55.207031 74.398438 54.476562 73.828125 C 53.988281 73.503906 51.546875 68.863281 49.757812 65.367188 C 46.171875 67.5625 42.183594 68.945312 38.035156 69.597656 C 37.871094 70.652344 37.21875 74.5625 36.8125 74.808594 C 36.324219 75.132812 32.582031 74.96875 32.582031 74.96875 C 32.582031 74.96875 31.929688 71.058594 31.847656 70.003906 C 27.695312 69.839844 23.546875 68.945312 19.722656 67.234375 C 18.5 66.667969 17.277344 66.015625 16.136719 65.367188 C 14.753906 68.539062 12.476562 73.910156 12.070312 73.910156 C 11.5 73.910156 10.523438 73.746094 10.601562 73.015625 C 10.601562 72.203125 14.347656 62.921875 14.265625 62.433594 C 14.105469 61.945312 13.613281 61.539062 13.046875 62.273438 C 12.558594 63.003906 8.164062 72.851562 7.835938 72.933594 C 7.511719 72.933594 7.511719 72.6875 7.511719 72.6875 L 11.171875 61.375 C 7.835938 58.121094 5.152344 53.886719 3.6875 48.597656 C 3.523438 48.191406 3.277344 47.214844 3.035156 46.316406 C 2.871094 45.746094 2.707031 45.179688 2.625 44.933594 C 2.625 44.851562 2.625 44.851562 2.625 44.773438 C 2.464844 44.285156 2.382812 43.714844 2.382812 43.140625 C 2.382812 40.539062 4.253906 38.097656 7.511719 36.144531 C 8.324219 35.65625 9.21875 35.574219 7.917969 36.632812 C 6.125 38.015625 4.988281 39.5625 4.742188 41.273438 C 6.453125 40.539062 11.582031 38.261719 11.742188 38.179688 C 11.988281 38.179688 12.230469 38.421875 12.230469 38.75 C 12.230469 38.992188 11.988281 39.074219 11.988281 39.074219 L 4.988281 43.304688 L 4.90625 43.222656 C 5.152344 43.957031 5.558594 44.773438 6.125 45.421875 C 8 44.691406 12.800781 42.492188 13.046875 42.492188 C 13.210938 42.410156 13.449219 42.734375 13.449219 42.980469 C 13.449219 43.304688 13.210938 43.386719 13.210938 43.386719 L 7.835938 47.050781 C 8.648438 47.703125 9.625 48.351562 10.765625 48.921875 C 12.882812 47.945312 17.441406 45.992188 17.605469 45.910156 C 17.847656 45.828125 18.089844 46.152344 18.089844 46.480469 C 18.011719 46.726562 17.765625 46.808594 17.765625 46.808594 L 13.210938 49.980469 C 14.59375 50.550781 16.058594 50.957031 17.605469 51.363281 C 19.3125 50.46875 22.734375 48.515625 23.789062 48.027344 C 25.417969 47.296875 26.3125 48.351562 24.769531 49.410156 L 20.859375 52.097656 C 22.648438 52.421875 24.523438 52.664062 26.476562 52.910156 C 28.507812 51.527344 32.660156 48.757812 33.71875 48.269531 C 35.347656 47.539062 36.160156 48.597656 34.617188 49.738281 L 30.058594 53.074219 C 30.707031 53.074219 31.441406 53.074219 32.175781 53.074219 C 33.070312 53.074219 34.042969 53.074219 34.941406 53.074219 C 35.265625 52.832031 43.488281 46.808594 44.789062 46.234375 C 46.335938 45.503906 47.234375 46.480469 45.847656 47.621094 L 39.742188 52.664062 C 42.105469 52.421875 44.300781 52.015625 46.417969 51.445312 C 47.3125 50.632812 54.636719 43.140625 55.859375 42.246094 C 57.40625 41.191406 58.460938 42.085938 57.160156 43.550781 L 51.464844 49.820312 C 56.429688 47.78125 59.523438 45.015625 59.523438 41.839844 C 59.523438 40.375 58.789062 38.910156 57.488281 37.605469 C 56.59375 38.179688 55.859375 38.585938 55.53125 38.75 C 54.070312 39.398438 53.335938 38.503906 54.71875 37.527344 L 56.105469 36.386719 C 56.023438 36.386719 55.941406 36.304688 55.859375 36.222656 C 54.636719 35.410156 54.964844 34.921875 56.269531 35.574219 Z M 23.871094 65.527344 C 25.417969 66.015625 30.464844 67.398438 35.835938 66.503906 C 39.824219 65.933594 42.429688 64.140625 43.894531 62.921875 C 40.558594 64.0625 33.882812 65.933594 27.941406 64.957031 C 19.800781 63.574219 15.8125 59.421875 15.8125 59.421875 C 15.8125 59.421875 16.058594 60.074219 16.710938 60.804688 C 17.523438 61.699219 18.746094 62.921875 19.636719 63.410156 C 21.347656 64.46875 20.941406 64.710938 20.617188 64.710938 C 20.535156 64.710938 19.3125 64.304688 18.417969 63.734375 C 18.011719 63.492188 17.605469 63.246094 17.117188 63.003906 C 17.117188 63.003906 16.953125 63.492188 16.625 64.222656 C 17.765625 64.957031 18.90625 65.609375 20.128906 66.179688 C 24.847656 68.214844 30.136719 69.109375 35.265625 68.703125 C 40.148438 68.375 45.035156 66.910156 49.183594 64.386719 C 49.101562 64.140625 48.941406 63.980469 48.859375 63.734375 C 46.90625 65.121094 42.429688 67.722656 35.753906 67.886719 C 31.441406 68.050781 27.617188 67.886719 23.625 66.179688 C 22.976562 65.933594 22.734375 65.203125 23.871094 65.527344 Z M 13.371094 59.992188 C 13.046875 59.75 12.800781 59.421875 12.636719 59.179688 C 10.523438 56.898438 9.464844 52.910156 9.464844 52.910156 C 9.464844 52.910156 23.300781 59.585938 41.128906 56.25 C 49.835938 54.621094 54.558594 52.175781 57.160156 50.144531 C 51.707031 53.480469 42.671875 55.59375 32.335938 55.59375 C 27.207031 55.59375 22.324219 55.027344 18.011719 54.050781 L 18.011719 54.132812 L 18.011719 54.050781 C 12.070312 52.75 7.347656 50.550781 4.664062 47.945312 C 4.742188 48.109375 4.742188 48.191406 4.742188 48.269531 C 6.207031 53.320312 8.730469 57.304688 11.824219 60.480469 C 12.230469 60.234375 12.722656 59.992188 13.371094 59.992188 Z M 21.023438 31.097656 C 19.3125 31.257812 17.929688 31.421875 16.460938 31.992188 C 15.894531 32.238281 15.488281 32.5625 15.160156 32.886719 C 14.835938 33.292969 14.59375 33.699219 14.511719 34.109375 C 14.429688 34.515625 14.511719 34.921875 14.671875 35.328125 C 14.835938 35.738281 15.078125 36.0625 15.40625 36.386719 C 15.894531 36.792969 16.546875 37.28125 17.441406 37.691406 C 18.171875 38.097656 19.070312 38.421875 19.964844 38.585938 C 22.976562 39.316406 26.882812 39.644531 30.871094 39.644531 C 35.347656 39.644531 39.90625 39.238281 43.324219 38.585938 C 45.195312 38.261719 46.988281 37.851562 48.371094 37.28125 C 49.507812 36.792969 50.324219 36.222656 50.40625 35.65625 C 50.40625 34.921875 49.589844 34.597656 48.535156 34.191406 C 48.128906 34.027344 47.640625 33.863281 47.152344 33.621094 C 46.253906 33.210938 45.441406 32.726562 44.628906 32.152344 C 43.894531 31.585938 43.160156 30.851562 42.511719 29.875 C 41.859375 29.144531 41.046875 28.410156 40.066406 28.003906 C 39.011719 27.515625 37.953125 27.269531 36.730469 27.269531 C 35.429688 27.269531 34.042969 27.839844 32.253906 28.492188 C 30.707031 29.0625 28.917969 29.710938 26.71875 30.199219 C 24.441406 30.769531 22.570312 30.933594 21.023438 31.097656 "
            fill-opacity="1" fill-rule="evenodd" />
    </g>
    <path fill="#b25000"
        d="M 27.371094 41.027344 C 27.371094 41.027344 30.136719 41.191406 33.71875 41.109375 C 37.789062 41.027344 41.535156 40.539062 45.441406 39.5625 C 48.777344 38.828125 49.183594 38.339844 49.675781 38.339844 C 50.242188 38.339844 50.082031 38.910156 49.589844 39.238281 C 49.101562 39.644531 46.253906 40.785156 41.859375 41.273438 C 39.417969 41.597656 36.242188 41.839844 33.558594 41.839844 C 31.28125 41.839844 29.324219 41.679688 28.671875 41.597656 C 27.289062 41.433594 27.371094 41.027344 27.371094 41.027344 Z M 38.523438 42.980469 C 38.523438 42.816406 39.011719 42.898438 40.394531 42.652344 C 41.289062 42.574219 43.8125 42.246094 45.847656 41.679688 C 47.476562 41.273438 48.695312 40.703125 48.777344 40.785156 C 50.164062 42.410156 39.011719 44.039062 38.523438 42.980469 "
        fill-opacity="1" fill-rule="evenodd" />
    <path fill="#f4631c"
        d="M 31.765625 9.121094 C 31.847656 10.339844 31.765625 11.5625 32.175781 11.5625 C 32.417969 11.5625 32.988281 10.746094 33.3125 9.691406 C 34.042969 7.246094 32.5 6.027344 31.605469 4.316406 C 31.359375 3.828125 31.195312 3.421875 31.117188 3.257812 C 30.953125 3.015625 30.464844 3.828125 30.300781 4.722656 C 30.136719 5.945312 31.6875 7.167969 31.765625 9.121094 Z M 11.5 12.863281 C 11.5 12.863281 12.230469 10.664062 12.148438 8.710938 C 11.988281 6.679688 11.664062 5.132812 11.582031 4.804688 C 11.582031 4.5625 13.449219 5.703125 13.699219 8.710938 C 13.859375 11.722656 11.90625 13.351562 11.582031 13.433594 C 11.253906 13.433594 11.5 12.863281 11.5 12.863281 Z M 10.6875 34.839844 C 10.6875 34.839844 6.941406 30.933594 7.023438 27.191406 C 7.101562 23.445312 8.976562 20.433594 11.335938 17.828125 C 13.699219 15.304688 15.160156 12.703125 15.324219 10.664062 C 15.570312 8.710938 15.324219 7.734375 15.570312 7.65625 C 15.734375 7.65625 17.117188 8.226562 17.929688 9.769531 C 18.660156 11.238281 19.394531 13.597656 19.394531 13.597656 C 19.394531 13.597656 21.105469 11.722656 21.023438 7.246094 C 20.941406 2.769531 19.148438 1.0625 19.070312 0.492188 C 18.90625 0.00390625 20.941406 0.0859375 22.484375 0.816406 C 24.035156 1.628906 29.164062 4.15625 29.488281 9.933594 C 29.894531 15.796875 28.183594 18.726562 28.835938 20.839844 C 29.40625 23.039062 30.546875 23.769531 30.546875 23.769531 C 30.546875 23.769531 30.21875 22.0625 32.011719 19.457031 C 33.800781 16.769531 35.265625 17.015625 35.671875 14.25 C 36.082031 11.480469 35.511719 10.746094 35.671875 10.585938 C 35.835938 10.339844 37.21875 10.664062 38.929688 13.675781 C 40.558594 16.769531 40.476562 18.644531 40.230469 19.699219 C 40.066406 20.679688 39.742188 21.410156 39.742188 21.410156 C 39.742188 21.410156 42.265625 19.863281 42.023438 16.609375 C 41.777344 13.269531 40.3125 11.238281 41.371094 7.980469 C 42.511719 4.722656 45.683594 1.875 47.234375 1.304688 C 48.695312 0.734375 48.207031 1.550781 48.128906 1.792969 C 48.046875 2.039062 46.90625 7.410156 48.453125 10.664062 C 50 14.003906 54.71875 17.015625 55.78125 22.46875 C 56.917969 28.003906 55.371094 32.726562 54.71875 33.457031 C 53.988281 34.109375 53.417969 34.027344 53.335938 33.539062 C 53.335938 32.96875 53.5 29.386719 52.195312 25.886719 C 50.894531 22.386719 48.941406 21.085938 48.941406 21.085938 C 50.164062 32.316406 46.824219 29.386719 43 27.109375 C 42.265625 26.703125 41.777344 27.191406 42.105469 27.675781 C 42.183594 27.761719 42.347656 28.003906 42.671875 28.410156 C 41.617188 27.191406 38.847656 26.375 37.953125 26.132812 C 38.035156 26.050781 38.441406 25.480469 38.441406 25.316406 C 38.359375 25.15625 37.953125 24.910156 35.835938 24.992188 C 33.636719 24.992188 30.300781 26.539062 27.859375 27.027344 C 25.335938 27.515625 24.441406 27.675781 23.464844 25.238281 C 22.246094 21.738281 22.40625 20.679688 22.40625 20.679688 C 22.40625 20.679688 20.046875 22.0625 19.882812 25.316406 C 19.882812 27.109375 20.046875 28.25 20.207031 28.980469 C 16.382812 29.550781 12.636719 26.945312 13.699219 23.445312 C 13.699219 23.445312 11.09375 25.804688 11.5 30.199219 C 11.90625 34.597656 11.824219 34.839844 11.582031 34.921875 C 11.335938 34.921875 10.6875 34.839844 10.6875 34.839844 Z M 51.546875 10.992188 C 51.546875 10.992188 50.730469 8.792969 50.894531 6.761719 C 50.976562 4.804688 51.382812 3.257812 51.382812 2.933594 C 51.382812 2.6875 49.507812 3.75 49.347656 6.839844 C 49.101562 9.851562 51.058594 11.480469 51.382812 11.480469 C 51.707031 11.5625 51.546875 10.992188 51.546875 10.992188 "
        fill-opacity="1" fill-rule="evenodd" />
    <g fill="#df4207" fill-opacity="1" stroke="white" stroke-width="1">
        <g transform="translate(66.43744, 58.634626)">
            <g>
                <path
                    d="M 9.753906 -23.8125 C 8.316406 -23.710938 7.011719 -23.277344 5.746094 -22.710938 C 5.144531 -22.441406 4.574219 -22.140625 4.109375 -21.675781 C 2.871094 -20.4375 2.171875 -18.96875 2.070312 -17.199219 C 1.96875 -15.328125 2.503906 -13.59375 3.90625 -12.390625 C 5.007812 -11.421875 5.910156 -10.1875 7.378906 -9.617188 C 7.914062 -9.382812 8.382812 -8.984375 8.882812 -8.683594 C 9.753906 -8.214844 10.621094 -7.679688 11.457031 -7.148438 C 12.257812 -6.613281 13.058594 -6.046875 13.828125 -5.410156 C 14.425781 -4.875 14.359375 -3.472656 13.425781 -3.238281 C 12.023438 -2.839844 10.652344 -2.839844 9.316406 -3.304688 C 8.582031 -3.375 7.714844 -3.941406 6.945312 -4.339844 C 6.046875 -4.777344 5.109375 -5.542969 4.476562 -6.34375 C 4.308594 -6.546875 4.042969 -6.714844 3.875 -6.847656 C 3.375 -6.878906 3.171875 -6.613281 2.972656 -6.378906 C 2.636719 -5.976562 2.335938 -5.578125 2.070312 -5.175781 C 1.871094 -4.910156 1.269531 -4.207031 1.371094 -3.972656 C 1.601562 -3.441406 2.4375 -2.871094 2.871094 -2.503906 C 4.339844 -1.203125 6.046875 -0.402344 7.914062 0.0664062 C 10.152344 0.601562 12.425781 0.601562 14.695312 0.300781 C 16.664062 0.0664062 18.503906 -0.535156 20.070312 -1.769531 C 20.640625 -2.203125 21.175781 -2.707031 21.441406 -3.339844 C 21.808594 -4.339844 22.109375 -5.34375 22.109375 -6.480469 C 22.042969 -8.417969 21.339844 -10.019531 19.9375 -11.320312 C 19.035156 -12.222656 17.902344 -12.824219 16.898438 -13.625 C 16.097656 -14.226562 15.230469 -14.695312 14.394531 -15.261719 C 13.492188 -15.863281 12.558594 -16.429688 11.65625 -17.066406 C 11.320312 -17.300781 11.019531 -17.632812 10.820312 -18 C 10.320312 -18.871094 10.621094 -19.671875 11.523438 -19.972656 C 11.824219 -20.070312 12.089844 -20.140625 12.390625 -20.140625 C 13.324219 -20.207031 14.195312 -20.105469 15.0625 -19.804688 C 16.164062 -19.4375 17.066406 -18.804688 17.535156 -17.699219 C 17.632812 -17.5 17.699219 -17.265625 18 -17.097656 C 19.101562 -17.132812 20.304688 -16.898438 21.472656 -17.097656 C 21.542969 -17.601562 21.472656 -17.933594 21.339844 -18.300781 C 21.140625 -18.734375 20.839844 -19.101562 20.605469 -19.503906 C 19.539062 -21.242188 18.136719 -22.511719 16.164062 -23.144531 C 14.09375 -23.8125 11.957031 -23.980469 9.753906 -23.8125 Z M 9.753906 -23.8125 " />
            </g>
        </g>
    </g>
    <g fill="#df4207" fill-opacity="1" stroke="white" stroke-width="1">
        <g transform="translate(89.741363, 58.634626)">
            <g>
                <path
                    d="M 28.085938 -17.835938 C 26.148438 -17.5 24.613281 -16.800781 22.976562 -15.597656 C 22.675781 -15.363281 22.34375 -15.128906 21.941406 -14.996094 C 21.675781 -15.429688 21.472656 -15.832031 21.175781 -16.164062 C 20.003906 -17.433594 18.402344 -17.699219 16.867188 -17.835938 C 14.628906 -18.066406 12.824219 -17.46875 10.886719 -16.265625 C 10.386719 -15.964844 9.953125 -15.5625 9.382812 -15.363281 C 8.816406 -16.03125 8.550781 -16.898438 7.78125 -17.433594 C 6.914062 -17.433594 6.011719 -17.398438 5.078125 -17.398438 C 4.175781 -17.367188 3.238281 -17.535156 2.203125 -17.367188 C 1.96875 -15.898438 2.238281 -14.460938 2.136719 -13.023438 C 2.039062 -11.621094 2.136719 -10.1875 2.136719 -8.785156 C 2.136719 -7.3125 2.136719 -5.878906 2.070312 -4.441406 C 1.96875 -3.003906 2.003906 -1.570312 2.070312 -0.101562 C 2.171875 -0.0351562 2.304688 0.0664062 2.4375 0.101562 C 4.941406 0.167969 7.347656 0 9.953125 -0.0664062 C 10.152344 -4.140625 9.785156 -8.183594 10.019531 -12.257812 C 10.121094 -12.625 10.386719 -12.792969 10.621094 -12.992188 C 11.121094 -13.390625 11.355469 -13.527344 11.988281 -13.726562 C 13.324219 -14.128906 14.460938 -13.792969 14.460938 -12.089844 C 14.496094 -9.953125 14.660156 -8.214844 14.496094 -5.710938 C 14.496094 -4.007812 14.460938 -2.304688 14.425781 -0.601562 C 14.425781 -0.367188 14.394531 -0.132812 14.660156 0.101562 C 17.167969 -0.199219 19.769531 0.132812 22.375 -0.0351562 C 22.542969 -0.234375 22.578125 -0.5 22.542969 -0.800781 C 22.511719 -1.136719 22.476562 -1.46875 22.476562 -1.769531 C 22.441406 -3.941406 22.441406 -6.113281 22.410156 -8.25 C 22.375 -9.550781 22.511719 -10.820312 22.609375 -12.222656 C 23.078125 -12.859375 23.511719 -12.957031 24.046875 -13.390625 C 24.480469 -13.761719 24.78125 -13.828125 25.347656 -13.859375 C 26.082031 -13.859375 26.851562 -13.226562 26.917969 -12.289062 C 26.953125 -11.621094 26.953125 -10.921875 26.953125 -10.253906 C 26.953125 -8.449219 26.917969 -6.644531 26.953125 -4.84375 C 26.953125 -3.40625 26.953125 -1.96875 26.984375 -0.5 C 26.984375 -0.265625 27.050781 -0.0664062 27.351562 0.132812 C 29.824219 0.0664062 32.363281 0.199219 34.898438 -0.0351562 C 35.167969 -0.332031 35.132812 -0.632812 35.132812 -0.933594 C 35.101562 -1.703125 35.066406 -2.472656 35.066406 -3.207031 C 35.066406 -5.308594 35.035156 -7.378906 35.132812 -9.453125 C 35.199219 -10.988281 35.167969 -12.492188 34.734375 -13.992188 C 34.433594 -15.027344 34 -16.03125 33.0625 -16.730469 C 31.59375 -17.835938 29.855469 -18.167969 28.085938 -17.835938 Z M 28.085938 -17.835938 " />
            </g>
        </g>
    </g>
    <g fill="#df4207" fill-opacity="1" stroke="white" stroke-width="1">
        <g transform="translate(126.967537, 58.634626)">
            <g>
                <path
                    d="M 4.542969 -24.378906 C 3.507812 -24.046875 2.636719 -23.613281 2.238281 -22.511719 C 2.105469 -22.109375 2.003906 -21.707031 2.105469 -21.339844 C 2.371094 -19.539062 3.640625 -18.835938 5.144531 -18.734375 C 5.675781 -18.734375 6.179688 -18.667969 6.679688 -18.703125 C 8.046875 -18.804688 9.21875 -19.269531 9.917969 -20.640625 C 10.21875 -21.242188 10.253906 -22.511719 9.683594 -23.144531 C 9.21875 -23.644531 8.683594 -24.078125 7.980469 -24.347656 C 6.8125 -24.8125 5.675781 -24.746094 4.542969 -24.378906 Z M 9.851562 -17.601562 C 7.3125 -17.535156 4.574219 -17.667969 2.269531 -17.5 C 2.039062 -17.265625 2.003906 -17.066406 2.003906 -16.867188 C 2.039062 -16.363281 2.039062 -15.628906 2.070312 -15.164062 C 2.203125 -13.792969 2.136719 -12.625 2.136719 -11.289062 C 2.136719 -9.953125 2.003906 -8.617188 2.003906 -7.246094 C 2.039062 -5.445312 2.171875 -3.671875 2.136719 -1.871094 C 2.136719 -1.269531 2.070312 -0.703125 2.171875 -0.0351562 C 4.742188 0.0351562 7.3125 0.0351562 9.851562 -0.0664062 C 10.152344 -0.367188 10.121094 -0.632812 10.085938 -0.902344 C 10.019531 -1.371094 9.984375 -1.804688 10.019531 -2.269531 C 10.019531 -3.90625 10.085938 -5.476562 10.085938 -7.082031 C 10.050781 -8.714844 10.050781 -10.351562 10.050781 -11.988281 C 10.050781 -13.425781 10.121094 -15.09375 10.121094 -16.53125 C 10.152344 -16.867188 10.121094 -17.234375 9.851562 -17.601562 Z M 9.851562 -17.601562 " />
            </g>
        </g>
    </g>
    <g fill="#df4207" fill-opacity="1" stroke="white" stroke-width="1">
        <g transform="translate(139.020133, 58.634626)">
            <g>
                <path
                    d="M 9.050781 -22.109375 C 8.25 -20.671875 7.28125 -19.605469 6.046875 -18.703125 C 4.742188 -17.765625 3.171875 -17.734375 1.667969 -17.234375 C 1.804688 -16.230469 1.570312 -15.230469 1.871094 -14.226562 C 2.605469 -14.09375 3.304688 -14.261719 3.972656 -14.128906 C 4.140625 -13.925781 4.109375 -13.625 4.109375 -13.425781 C 4.109375 -11.554688 4.074219 -9.652344 4.074219 -7.75 C 4.074219 -7.082031 4.042969 -6.414062 4.042969 -5.746094 C 4.042969 -4.910156 4.242188 -4.007812 4.476562 -3.171875 C 4.574219 -2.738281 4.777344 -2.269531 5.078125 -1.902344 C 6.277344 -0.667969 7.714844 0 9.417969 0.234375 C 11.320312 0.5 13.191406 0.332031 14.996094 -0.332031 C 15.429688 -0.46875 15.929688 -0.535156 16.296875 -1 C 16.164062 -1.871094 16.363281 -2.804688 15.964844 -3.707031 C 15.53125 -3.605469 15.195312 -3.507812 14.863281 -3.441406 C 14.160156 -3.339844 13.492188 -3.375 12.992188 -3.941406 C 12.65625 -4.308594 12.390625 -4.710938 12.222656 -5.210938 C 12.023438 -5.945312 12.054688 -6.679688 11.988281 -7.449219 C 11.890625 -9.316406 12.15625 -11.222656 12.089844 -13.09375 C 12.089844 -13.425781 12.023438 -13.894531 12.257812 -14.195312 C 13.492188 -14.292969 14.761719 -14.292969 15.964844 -14.292969 C 16.265625 -14.496094 16.230469 -14.695312 16.230469 -14.960938 C 16.230469 -15.429688 16.199219 -15.929688 16.230469 -16.398438 C 16.230469 -16.699219 16.265625 -17.066406 16.199219 -17.367188 C 15.898438 -17.46875 15.5625 -17.5 15.261719 -17.46875 C 14.261719 -17.398438 13.226562 -17.566406 12.125 -17.433594 L 12.125 -22.074219 C 10.988281 -22.277344 9.984375 -22.074219 9.050781 -22.109375 Z M 9.050781 -22.109375 " />
            </g>
        </g>
    </g>
    <g fill="#df4207" fill-opacity="1" stroke="white" stroke-width="1">
        <g transform="translate(156.414602, 58.634626)">
            <g>
                <path
                    d="M 10.121094 -23.679688 C 7.449219 -23.511719 4.808594 -23.710938 2.136719 -23.578125 C 1.871094 -15.664062 2.039062 -7.816406 2.304688 0 C 2.472656 0.0351562 2.570312 0.101562 2.671875 0.101562 C 4.175781 -0.0351562 5.644531 -0.0351562 7.179688 0 C 8.148438 0.0664062 9.152344 0.0351562 10.085938 -0.265625 C 10.21875 -0.46875 10.253906 -0.667969 10.21875 -0.867188 C 10.085938 -1.835938 10.152344 -2.804688 10.152344 -3.773438 C 10.121094 -6.714844 10.285156 -9.652344 10.285156 -12.589844 C 10.285156 -12.957031 10.421875 -13.226562 10.6875 -13.460938 C 11.421875 -14.058594 12.15625 -14.460938 13.160156 -14.527344 C 14.5625 -14.628906 15.464844 -13.691406 15.628906 -12.457031 C 15.832031 -11.1875 15.796875 -9.851562 15.863281 -8.582031 C 15.929688 -7.613281 15.796875 -6.679688 15.832031 -5.746094 C 15.832031 -4.808594 15.832031 -3.875 15.863281 -2.90625 C 15.898438 -2.136719 15.863281 -1.335938 15.863281 -0.535156 C 15.863281 -0.332031 15.929688 -0.132812 16.097656 0 C 17.03125 0.101562 22.644531 0.0351562 23.710938 -0.132812 C 23.914062 -0.433594 23.980469 -0.734375 23.980469 -1.035156 L 23.980469 -3.972656 C 23.914062 -5.277344 23.980469 -6.644531 24.011719 -7.949219 C 24.078125 -9.285156 23.980469 -10.585938 23.980469 -11.890625 C 23.980469 -13.660156 23.3125 -15.195312 22.175781 -16.53125 C 21.707031 -17.066406 21.175781 -17.566406 20.472656 -17.902344 C 17.867188 -19.035156 15.328125 -18.570312 12.859375 -17.46875 C 11.988281 -17.097656 11.1875 -16.632812 10.253906 -16.164062 C 10.285156 -17.03125 10.253906 -17.835938 10.1875 -18.667969 C 10.085938 -19.503906 10.1875 -20.339844 10.121094 -21.175781 C 10.085938 -21.976562 10.253906 -22.777344 10.121094 -23.679688 Z M 10.121094 -23.679688 " />
            </g>
        </g>
    </g>
    <g fill="#df4207" fill-opacity="1" stroke="white" stroke-width="1">
        <g transform="translate(182.523002, 58.634626)">
            <g>
                <path
                    d="M 11.957031 -17.765625 C 10.085938 -18.167969 8.25 -18 6.414062 -17.535156 C 5.242188 -17.234375 4.273438 -16.566406 3.441406 -15.664062 C 2.503906 -14.660156 1.96875 -13.492188 1.9375 -12.089844 C 1.902344 -10.652344 2.335938 -9.382812 3.605469 -8.515625 C 4.175781 -8.117188 4.742188 -7.714844 5.378906 -7.347656 C 6.511719 -6.746094 7.613281 -6.078125 8.851562 -5.644531 C 9.484375 -5.34375 10.085938 -4.976562 10.585938 -4.476562 C 10.855469 -4.207031 11.089844 -3.90625 10.886719 -3.507812 C 10.71875 -3.140625 10.386719 -3.003906 10.019531 -2.972656 C 9.015625 -2.871094 8.082031 -3.003906 7.113281 -3.273438 C 5.84375 -3.605469 4.710938 -4.074219 3.640625 -4.84375 C 3.472656 -4.941406 3.339844 -5.144531 3.039062 -5.109375 C 2.335938 -4.339844 1.902344 -3.40625 1.503906 -2.40625 C 1.703125 -2.136719 1.835938 -1.9375 2.070312 -1.804688 C 2.738281 -1.4375 3.40625 -1.035156 4.109375 -0.734375 C 5.476562 -0.234375 6.847656 0.101562 8.347656 0.300781 C 10.453125 0.566406 12.523438 0.5 14.527344 -0.300781 C 16.632812 -1.101562 17.867188 -2.605469 18 -4.910156 C 18.136719 -7.082031 17 -8.484375 15.261719 -9.519531 C 13.894531 -10.351562 12.558594 -11.15625 11.1875 -11.890625 C 10.6875 -12.15625 10.21875 -12.457031 9.683594 -12.890625 C 8.785156 -13.625 9.25 -14.394531 9.820312 -14.660156 C 10.753906 -15.09375 12.890625 -14.628906 13.59375 -13.558594 C 13.859375 -13.191406 14.027344 -12.757812 14.292969 -12.425781 C 15.429688 -12.390625 16.566406 -12.191406 17.699219 -12.457031 C 17.800781 -13.390625 17.398438 -14.09375 17 -14.796875 C 16.5 -15.761719 15.796875 -16.5 14.761719 -16.964844 C 13.828125 -17.300781 12.890625 -17.535156 11.957031 -17.765625 Z M 11.957031 -17.765625 " />
            </g>
        </g>
    </g>
    <g fill="#df4207" fill-opacity="1" stroke="white" stroke-width="1">
        <g transform="translate(201.853902, 58.634626)">
            <g />
        </g>
    </g>
    <g fill="#df4207" fill-opacity="1" stroke="white" stroke-width="1">
        <g transform="translate(210.86831, 58.634626)">
            <g>
                <path
                    d="M 2.304688 -23.378906 C 2.136719 -23.277344 2.070312 -23.144531 2.171875 -22.910156 C 2.203125 -22.808594 2.203125 -22.644531 2.171875 -22.542969 C 2.105469 -21.808594 2.105469 -21.105469 2.070312 -20.371094 C 2.070312 -19.238281 2.136719 -18.101562 2.039062 -16.964844 C 1.96875 -15.996094 2.039062 -15.027344 2.039062 -14.058594 C 2.070312 -13.324219 2.171875 -12.589844 2.136719 -11.855469 C 2.070312 -10.6875 2.171875 -9.519531 2.171875 -8.347656 C 2.136719 -7.414062 2.171875 -6.445312 2.203125 -5.511719 C 2.238281 -4.777344 2.203125 -4.042969 2.304688 -3.304688 C 2.40625 -2.40625 2.203125 -0.167969 2.304688 0.101562 C 2.40625 0.101562 3.742188 -0.0664062 4.207031 -0.0351562 C 4.675781 0.0351562 5.144531 0.0351562 5.609375 0.0351562 C 6.078125 0.0351562 6.546875 -0.0351562 7.011719 -0.0351562 C 7.679688 -0.0351562 8.347656 0 8.984375 0 C 9.617188 -0.0351562 10.253906 -0.0351562 10.921875 -0.101562 C 11.6875 -0.167969 12.492188 -0.0664062 13.324219 -0.0664062 C 14.929688 -0.0664062 16.53125 0.0351562 18.136719 -0.0351562 C 18.769531 -0.0351562 19.402344 0.0351562 20.003906 0 C 20.773438 -0.0351562 21.507812 0 22.277344 -0.0351562 C 23.378906 -0.101562 24.480469 -0.132812 25.515625 -0.769531 C 26.285156 -1.203125 26.917969 -1.738281 27.285156 -2.503906 C 27.851562 -3.605469 28.222656 -4.742188 28.1875 -6.011719 C 28.152344 -7.3125 27.921875 -8.515625 27.117188 -9.550781 C 26.683594 -10.085938 26.25 -10.652344 25.648438 -10.921875 C 24.980469 -11.253906 24.246094 -11.488281 23.511719 -11.621094 C 23.011719 -11.6875 22.511719 -11.789062 21.976562 -11.855469 C 22.410156 -11.988281 22.808594 -12.089844 23.210938 -12.222656 C 24.8125 -12.824219 25.949219 -13.828125 26.316406 -15.597656 C 26.449219 -16.164062 26.519531 -16.765625 26.484375 -17.367188 C 26.417969 -18 26.25 -18.601562 26.117188 -19.238281 C 25.851562 -20.40625 25.214844 -21.339844 24.246094 -22.074219 C 23.777344 -22.476562 23.210938 -22.710938 22.609375 -22.945312 C 22.042969 -23.144531 21.507812 -23.3125 20.875 -23.34375 C 19.203125 -23.410156 12.925781 -23.546875 10.753906 -23.34375 C 9.316406 -23.246094 7.914062 -23.378906 6.480469 -23.3125 C 5.078125 -23.277344 3.707031 -23.445312 2.304688 -23.378906 Z M 14.09375 -20.472656 C 14.828125 -20.4375 15.5625 -20.273438 16.230469 -19.804688 C 16.699219 -19.472656 16.933594 -18.9375 17.097656 -18.402344 C 17.398438 -17.535156 17.433594 -16.664062 17.300781 -15.730469 C 17.132812 -14.828125 16.730469 -14.128906 15.863281 -13.792969 C 15.496094 -13.625 15.0625 -13.59375 14.660156 -13.558594 C 13.761719 -13.492188 12.859375 -13.492188 11.957031 -13.492188 C 11.789062 -13.492188 11.621094 -13.492188 11.421875 -13.527344 C 11.386719 -15.832031 11.320312 -18.066406 11.289062 -20.273438 C 11.355469 -20.371094 11.421875 -20.371094 11.488281 -20.371094 C 12.355469 -20.40625 13.226562 -20.472656 14.09375 -20.472656 Z M 14.5625 -10.085938 C 15.429688 -10.085938 16.296875 -10.050781 16.964844 -9.351562 C 17.5 -8.75 17.800781 -8.046875 17.902344 -7.246094 C 17.902344 -7.011719 18 -6.78125 18 -6.546875 C 17.933594 -5.777344 17.800781 -5.042969 17.535156 -4.339844 C 17.46875 -4.140625 17.332031 -4.007812 17.167969 -3.839844 C 16.566406 -3.238281 15.832031 -3.105469 15.027344 -3.207031 C 14.292969 -3.273438 13.527344 -3.304688 12.792969 -3.304688 C 12.324219 -3.273438 11.855469 -3.304688 11.355469 -3.339844 L 11.355469 -9.984375 C 11.757812 -9.953125 12.125 -9.984375 12.523438 -9.984375 C 13.191406 -10.050781 13.894531 -10.050781 14.5625 -10.085938 Z M 14.5625 -10.085938 " />
            </g>
        </g>
    </g>
    <g fill="#df4207" fill-opacity="1" stroke="white" stroke-width="1">
        <g transform="translate(240.549086, 58.634626)">
            <g>
                <path
                    d="M 2.304688 -23.378906 C 2.136719 -23.277344 2.070312 -23.144531 2.171875 -22.910156 C 2.203125 -22.808594 2.203125 -22.644531 2.171875 -22.542969 C 2.105469 -21.808594 2.105469 -21.105469 2.070312 -20.371094 C 2.070312 -19.238281 2.136719 -18.101562 2.039062 -16.964844 C 1.96875 -15.996094 2.039062 -15.027344 2.039062 -14.058594 C 2.070312 -13.324219 2.171875 -12.589844 2.136719 -11.855469 C 2.070312 -10.6875 2.171875 -9.519531 2.171875 -8.347656 C 2.136719 -7.414062 2.171875 -6.445312 2.203125 -5.511719 C 2.238281 -4.777344 2.203125 -4.042969 2.304688 -3.304688 C 2.40625 -2.40625 2.203125 -0.167969 2.304688 0.101562 C 2.40625 0.101562 3.742188 -0.0664062 4.207031 -0.0351562 C 4.675781 0.0351562 5.144531 0.0351562 5.609375 0.0351562 C 6.078125 0.0351562 6.546875 -0.0351562 7.011719 -0.0351562 C 7.679688 -0.0351562 8.347656 0 8.984375 0 C 9.617188 -0.0351562 10.253906 -0.0351562 10.921875 -0.101562 C 11.6875 -0.167969 12.492188 -0.0664062 13.324219 -0.0664062 C 14.929688 -0.0664062 16.53125 0.0351562 18.136719 -0.0351562 C 18.769531 -0.0351562 19.402344 0.0351562 20.003906 0 C 20.773438 -0.0351562 21.507812 0 22.277344 -0.0351562 C 23.378906 -0.101562 24.480469 -0.132812 25.515625 -0.769531 C 26.285156 -1.203125 26.917969 -1.738281 27.285156 -2.503906 C 27.851562 -3.605469 28.222656 -4.742188 28.1875 -6.011719 C 28.152344 -7.3125 27.921875 -8.515625 27.117188 -9.550781 C 26.683594 -10.085938 26.25 -10.652344 25.648438 -10.921875 C 24.980469 -11.253906 24.246094 -11.488281 23.511719 -11.621094 C 23.011719 -11.6875 22.511719 -11.789062 21.976562 -11.855469 C 22.410156 -11.988281 22.808594 -12.089844 23.210938 -12.222656 C 24.8125 -12.824219 25.949219 -13.828125 26.316406 -15.597656 C 26.449219 -16.164062 26.519531 -16.765625 26.484375 -17.367188 C 26.417969 -18 26.25 -18.601562 26.117188 -19.238281 C 25.851562 -20.40625 25.214844 -21.339844 24.246094 -22.074219 C 23.777344 -22.476562 23.210938 -22.710938 22.609375 -22.945312 C 22.042969 -23.144531 21.507812 -23.3125 20.875 -23.34375 C 19.203125 -23.410156 12.925781 -23.546875 10.753906 -23.34375 C 9.316406 -23.246094 7.914062 -23.378906 6.480469 -23.3125 C 5.078125 -23.277344 3.707031 -23.445312 2.304688 -23.378906 Z M 14.09375 -20.472656 C 14.828125 -20.4375 15.5625 -20.273438 16.230469 -19.804688 C 16.699219 -19.472656 16.933594 -18.9375 17.097656 -18.402344 C 17.398438 -17.535156 17.433594 -16.664062 17.300781 -15.730469 C 17.132812 -14.828125 16.730469 -14.128906 15.863281 -13.792969 C 15.496094 -13.625 15.0625 -13.59375 14.660156 -13.558594 C 13.761719 -13.492188 12.859375 -13.492188 11.957031 -13.492188 C 11.789062 -13.492188 11.621094 -13.492188 11.421875 -13.527344 C 11.386719 -15.832031 11.320312 -18.066406 11.289062 -20.273438 C 11.355469 -20.371094 11.421875 -20.371094 11.488281 -20.371094 C 12.355469 -20.40625 13.226562 -20.472656 14.09375 -20.472656 Z M 14.5625 -10.085938 C 15.429688 -10.085938 16.296875 -10.050781 16.964844 -9.351562 C 17.5 -8.75 17.800781 -8.046875 17.902344 -7.246094 C 17.902344 -7.011719 18 -6.78125 18 -6.546875 C 17.933594 -5.777344 17.800781 -5.042969 17.535156 -4.339844 C 17.46875 -4.140625 17.332031 -4.007812 17.167969 -3.839844 C 16.566406 -3.238281 15.832031 -3.105469 15.027344 -3.207031 C 14.292969 -3.273438 13.527344 -3.304688 12.792969 -3.304688 C 12.324219 -3.273438 11.855469 -3.304688 11.355469 -3.339844 L 11.355469 -9.984375 C 11.757812 -9.953125 12.125 -9.984375 12.523438 -9.984375 C 13.191406 -10.050781 13.894531 -10.050781 14.5625 -10.085938 Z M 14.5625 -10.085938 " />
            </g>
        </g>
    </g>
    <g fill="#df4207" fill-opacity="1" stroke="white" stroke-width="1">
        <g transform="translate(270.229873, 58.634626)">
            <g>
                <path
                    d="M 11.488281 -23.546875 C 10.789062 -23.410156 10.050781 -23.3125 9.382812 -23.078125 C 8.785156 -22.878906 8.214844 -22.542969 7.613281 -22.277344 C 5.84375 -21.441406 4.542969 -20.039062 3.507812 -18.433594 C 2.839844 -17.433594 2.503906 -16.265625 1.9375 -15.195312 C 1.871094 -15.09375 1.835938 -14.960938 1.804688 -14.863281 C 1.4375 -13.125 1.4375 -11.355469 1.667969 -9.585938 C 1.738281 -9.117188 1.835938 -8.617188 2.003906 -8.148438 C 2.269531 -7.28125 2.738281 -6.546875 3.105469 -5.746094 C 3.472656 -4.976562 3.90625 -4.308594 4.507812 -3.742188 C 5.710938 -2.539062 6.980469 -1.46875 8.617188 -0.902344 C 10.585938 -0.199219 12.625 0.265625 14.726562 0.367188 C 15.597656 0.433594 16.464844 0.433594 17.332031 0.199219 C 17.601562 0.566406 17.800781 0.835938 18 1.136719 C 18.734375 2.171875 19.4375 2.707031 20.507812 3.375 C 21.808594 4.175781 23.210938 4.308594 24.546875 3.941406 L 24.546875 0.46875 C 23.878906 0.535156 23.210938 0.5 22.609375 0.300781 C 21.941406 0.0664062 21.574219 -0.433594 21.207031 -0.933594 C 21.273438 -1.136719 21.441406 -1.136719 21.574219 -1.203125 C 22.308594 -1.4375 22.945312 -1.804688 23.476562 -2.335938 C 24.28125 -3.105469 24.914062 -3.972656 25.550781 -4.875 C 26.851562 -6.714844 27.253906 -8.816406 27.554688 -10.953125 C 27.753906 -12.125 27.519531 -13.324219 27.320312 -14.496094 C 27.152344 -15.53125 26.886719 -16.566406 26.449219 -17.5 C 25.683594 -19.171875 24.3125 -20.40625 22.808594 -21.441406 C 21.542969 -22.34375 20.140625 -23.011719 18.570312 -23.34375 C 16.199219 -23.8125 13.859375 -23.945312 11.488281 -23.546875 Z M 13.792969 -19.90625 C 14.726562 -20.40625 15.664062 -20.140625 16.296875 -19.238281 C 17.03125 -18.101562 17.234375 -16.800781 17.46875 -15.53125 C 17.667969 -14.527344 17.734375 -13.527344 17.699219 -12.558594 C 17.632812 -10.652344 17.699219 -8.75 17.265625 -6.878906 C 17.265625 -6.8125 17.234375 -6.546875 17.167969 -6.480469 C 16.765625 -7.148438 16.230469 -8.148438 15.597656 -8.851562 C 14.695312 -8.25 13.792969 -7.648438 12.824219 -7.046875 C 12.925781 -6.277344 13.527344 -5.777344 13.859375 -5.175781 C 14.160156 -4.542969 14.628906 -4.042969 15.027344 -3.472656 C 14.394531 -3.171875 13.558594 -3.40625 13.023438 -3.972656 C 12.125 -4.976562 11.6875 -6.179688 11.421875 -7.449219 C 11.289062 -8.015625 11.15625 -8.617188 11.054688 -9.183594 C 10.886719 -10.121094 10.953125 -11.089844 10.953125 -12.023438 C 10.921875 -13.894531 11.289062 -15.730469 11.957031 -17.46875 C 12.324219 -18.433594 12.757812 -19.371094 13.792969 -19.90625 Z M 13.792969 -19.90625 " />
            </g>
        </g>
    </g>
</svg>